<?xml version="1.0" encoding="utf-8"?>
<!-- Generator: Adobe Illustrator 23.0.0, SVG Export Plug-In . SVG Version: 6.00 Build 0)  -->
<svg version="1.1" id="Layer_1" xmlns="http://www.w3.org/2000/svg" xmlns:xlink="http://www.w3.org/1999/xlink" x="0px" y="0px"
	 viewBox="0 0 391.5 287.1" style="enable-background:new 0 0 391.5 287.1;" xml:space="preserve">
<style type="text/css">
	.st0{fill:url(#SVGID_1_);}
	.st1{clip-path:url(#SVGID_3_);fill:url(#SVGID_4_);}
	.st2{fill:url(#SVGID_5_);}
	.st3{fill:url(#SVGID_6_);}
	.st4{fill:url(#SVGID_7_);}
	.st5{fill:url(#SVGID_8_);}
	.st6{fill:url(#SVGID_9_);}
	.st7{fill:#1D1D1B;}
</style>
<g>

		<linearGradient id="SVGID_1_" gradientUnits="userSpaceOnUse" x1="6077.7998" y1="-11708.6084" x2="6083.5737" y2="-11708.6084" gradientTransform="matrix(35.3735 0 0 35.3735 -214899.1875 414340.5938)">
		<stop  offset="0" style="stop-color:#DB00E9"/>
		<stop  offset="1" style="stop-color:#15FBFF"/>
	</linearGradient>
	<path class="st0" d="M273.2,187.5L273.2,187.5H94.4v-41.6H297v20.2C297,178,286.3,187.5,273.2,187.5L273.2,187.5L273.2,187.5
		c13.1,0,23.7-9.6,23.7-21.4v-20.2H94.4v41.6H273.2L273.2,187.5z"/>
	<g>
		<g>
			<defs>
				<path id="SVGID_2_" d="M94.4,24.9v41.6H297V46.1c0-11.8-10.6-21.2-23.5-21.2L94.4,24.9L94.4,24.9z"/>
			</defs>
			<clipPath id="SVGID_3_">
				<use xlink:href="#SVGID_2_"  style="overflow:visible;"/>
			</clipPath>

				<linearGradient id="SVGID_4_" gradientUnits="userSpaceOnUse" x1="6077.0327" y1="-11711.7119" x2="6082.8047" y2="-11711.7119" gradientTransform="matrix(35.089 0 0 35.089 -213142.6563 410998.0625)">
				<stop  offset="0" style="stop-color:#2E3192"/>
				<stop  offset="9.824239e-02" style="stop-color:#372F97"/>
				<stop  offset="0.2567" style="stop-color:#4F29A3"/>
				<stop  offset="0.4558" style="stop-color:#7520B7"/>
				<stop  offset="0.6875" style="stop-color:#AB14D3"/>
				<stop  offset="0.9439" style="stop-color:#EF04F7"/>
				<stop  offset="1" style="stop-color:#FF00FF"/>
			</linearGradient>
			<rect x="94.4" y="24.9" class="st1" width="202.5" height="41.6"/>
		</g>
	</g>

		<linearGradient id="SVGID_5_" gradientUnits="userSpaceOnUse" x1="6038.4263" y1="-11723.8389" x2="6044.1987" y2="-11723.8389" gradientTransform="matrix(24.8071 0 0 24.8071 -149641.9375 290941.0625)">
		<stop  offset="0" style="stop-color:#2E3192"/>
		<stop  offset="9.824239e-02" style="stop-color:#372F97"/>
		<stop  offset="0.2567" style="stop-color:#4F29A3"/>
		<stop  offset="0.4558" style="stop-color:#7520B7"/>
		<stop  offset="0.6875" style="stop-color:#AB14D3"/>
		<stop  offset="0.9439" style="stop-color:#EF04F7"/>
		<stop  offset="1" style="stop-color:#FF00FF"/>
	</linearGradient>
	<rect x="153.7" y="85.4" class="st2" width="143.2" height="41.6"/>

		<linearGradient id="SVGID_6_" gradientUnits="userSpaceOnUse" x1="6077.0327" y1="-11708.8623" x2="6082.8047" y2="-11708.8623" gradientTransform="matrix(35.089 0 0 35.089 -213142.6563 411019.0313)">
		<stop  offset="0" style="stop-color:#2E3192"/>
		<stop  offset="9.824239e-02" style="stop-color:#372F97"/>
		<stop  offset="0.2567" style="stop-color:#4F29A3"/>
		<stop  offset="0.4558" style="stop-color:#7520B7"/>
		<stop  offset="0.6875" style="stop-color:#AB14D3"/>
		<stop  offset="0.9439" style="stop-color:#EF04F7"/>
		<stop  offset="1" style="stop-color:#FF00FF"/>
	</linearGradient>
	<rect x="94.4" y="145.8" class="st3" width="202.5" height="41.6"/>
	<g>

			<linearGradient id="SVGID_7_" gradientUnits="userSpaceOnUse" x1="6077.7998" y1="-11711.4365" x2="6083.5737" y2="-11711.4365" gradientTransform="matrix(35.3735 0 0 35.3735 -214899.1875 414319.6563)">
			<stop  offset="0" style="stop-color:#DB00E9"/>
			<stop  offset="1" style="stop-color:#15FBFF"/>
		</linearGradient>
		<path class="st4" d="M297,66.5L297,66.5H94.4V24.9h179c13.1,0,23.5,9.4,23.5,21.2V66.5L297,66.5L297,66.5V46.1
			c0-11.8-10.6-21.2-23.5-21.2h-179v41.6L297,66.5L297,66.5z"/>
	</g>
	<g>

			<linearGradient id="SVGID_8_" gradientUnits="userSpaceOnUse" x1="6077.7998" y1="-11711.4365" x2="6083.5737" y2="-11711.4365" gradientTransform="matrix(35.3735 0 0 35.3735 -214899.1875 414319.6563)">
			<stop  offset="0" style="stop-color:#DB00E9"/>
			<stop  offset="1" style="stop-color:#15FBFF"/>
		</linearGradient>
		<path class="st5" d="M273.4,24.9L273.4,24.9h-179v41.6H297V46.1C297,34.5,286.5,24.9,273.4,24.9L273.4,24.9L273.4,24.9
			c13.1,0,23.5,9.4,23.5,21.2v20.4H94.4V24.9H273.4L273.4,24.9z"/>
	</g>
	<g>

			<linearGradient id="SVGID_9_" gradientUnits="userSpaceOnUse" x1="6039.9355" y1="-11723.3252" x2="6045.7085" y2="-11723.3252" gradientTransform="matrix(25.0916 0 0 25.0916 -151398.6875 294262.9688)">
			<stop  offset="0" style="stop-color:#DB00E9"/>
			<stop  offset="1" style="stop-color:#15FBFF"/>
		</linearGradient>
		<polygon class="st6" points="297,127 297,127 153.7,127 153.7,85.4 297,85.4 297,127 297,127 297,127 297,85.4 153.7,85.4
			153.7,127 		"/>
	</g>

</g>
</svg>
