<svg width="140" height="249" viewBox="0 0 140 249" fill="none" xmlns="http://www.w3.org/2000/svg">
<path fill-rule="evenodd" clip-rule="evenodd" d="M31.7904 71.4072C29.3551 72.42 27.0892 73.6817 25.4368 75.8457C24.3998 75.0766 24.8578 74.2901 25.3677 73.6627C25.964 72.9161 26.6329 72.1659 27.4106 71.6232C35.0484 66.2946 42.6119 60.9175 51.0896 56.8523C57.4329 53.8104 64.1909 51.7951 70.3958 48.4921C71.3464 47.9857 72.1622 47.761 72.7551 49.0434C73.1734 49.9509 74.1274 49.8558 74.9553 49.8212C77.9921 49.7002 81.0618 49.2232 84.0622 49.5015C87.6556 49.835 91.5618 48.8101 94.7697 51.4027C95.1551 51.7121 95.9882 51.7052 95.7445 52.4397C95.5716 52.9911 94.8924 52.7681 94.4499 52.756C90.5092 52.6454 86.5701 52.3585 82.6329 52.3913C74.0756 52.4605 65.6721 53.4543 57.8511 57.2983C57.6137 57.4283 57.3829 57.5702 57.1598 57.7235C56.7024 58.2432 56.1366 58.6562 55.5022 58.9333C48.0978 62.48 41.2326 67.017 33.9077 70.7123C33.233 71.0336 32.5196 71.266 31.7852 71.4037" fill="#1072BA"/>
<path fill-rule="evenodd" clip-rule="evenodd" d="M46.3902 89.2805C48.4159 87.6258 50.4398 85.9683 52.462 84.3079C58.4285 79.4165 65.1087 75.9684 72.7292 74.5528C74.8223 74.1622 76.9862 74.1432 79.1243 73.9825C79.4267 73.9583 79.8709 73.8096 80.004 74.2504C80.1578 74.781 79.7102 75.0229 79.3334 75.1146C78.1875 75.379 77.0173 75.5104 75.8766 75.7921C67.0013 77.9871 59.284 82.4257 52.1976 88.0827C50.8857 90.1412 48.6457 91.1938 47.0124 92.9015C38.0248 100.544 30.9383 109.893 23.5806 119C23.1969 119.477 22.9082 120.058 22.2376 120.22C21.1003 120.651 21.1401 120.15 21.3959 119.263C21.9144 117.45 23.0136 115.979 24.0731 114.489C25.1327 112.999 26.2233 111.528 27.3001 110.047C29.2013 106.35 31.7576 103.066 34.5593 100.095C37.3248 97.1568 40.2872 94.3516 43.2013 91.5378C44.1467 90.6286 45.1025 89.7402 46.3746 89.2909" fill="#1072BA"/>
<path fill-rule="evenodd" clip-rule="evenodd" d="M69.931 62.2639C59.9201 67.0378 49.9087 71.811 39.8967 76.5837C38.6228 77.1903 37.6722 78.1686 36.8115 79.2506C36.5695 79.6637 36.4658 80.1736 36.0631 80.476C33.0816 82.7229 30.4545 85.376 27.5646 87.7249C27.1256 88.0706 26.6036 88.259 26.0937 88.4681L21.1298 92.6266C20.3779 92.7131 20.0547 92.3916 20.1809 91.638C21.0088 89.92 22.535 88.7205 23.5391 87.1442C25.7238 83.8602 29.0596 81.7671 31.8026 79.0587C35.2905 75.602 39.71 73.5279 43.8893 71.1081C46.6322 69.518 49.2749 67.7447 52.2944 66.6471C53.2675 66.2894 54.2423 65.9558 55.2327 65.6896C59.3808 63.8592 63.529 62.0047 67.6892 60.2002C70.847 58.84 74.0964 58.0536 77.5411 58.98C78.3413 59.1978 79.2868 59.3257 78.6939 60.5597C78.2324 61.3773 77.4512 61.64 76.606 61.6175C74.347 61.5484 72.1364 61.9286 69.9206 62.2726" fill="#1072BA"/>
<path fill-rule="evenodd" clip-rule="evenodd" d="M58.0706 59.0232C61.1679 57.9049 64.2445 56.7261 67.3711 55.6891C71.1442 54.4429 75.0642 54.1819 79.0101 54.3392C79.8121 54.3721 81.0375 54.0385 80.9719 55.4679C80.9131 56.7261 79.8242 56.619 78.9375 56.6778C70.0864 57.3328 61.804 59.8666 54.0573 64.179C53.6978 64.3778 53.3659 64.637 53.0306 64.8704C52.5484 65.821 51.5822 66.1234 50.7128 66.4881C42.1711 70.0279 34.739 75.3393 27.5074 80.9756C26.0383 82.1249 24.8872 83.5993 23.6669 85.0027C23.3212 85.3968 22.8304 85.8669 22.2548 85.44C21.8694 85.1548 22.0681 84.6864 22.2548 84.3027C24.9027 80.2289 27.8738 76.4523 31.92 73.6472C32.2882 72.8314 33.0556 72.4373 33.7746 72.0657C38.7351 69.4834 43.0958 65.9091 48.1203 63.4375C51.3817 61.8336 54.5153 59.9375 58.0775 59.0197" fill="#1072BA"/>
<path fill-rule="evenodd" clip-rule="evenodd" d="M31.863 100.061C30.5961 98.2578 32.1102 97.219 33.0729 96.1889C36.561 92.4581 40.2952 88.9653 44.2504 85.7338C47.4013 83.1551 50.2825 80.2652 53.4732 77.7486C57.1823 74.8225 61.4411 72.8797 65.9418 71.459C71.2722 70.8299 76.5957 70.0365 81.99 70.1592C82.8836 70.18 84.0762 69.7876 84.026 71.3968C80.3446 72.3785 76.5317 72.4805 72.7811 73.0042C66.1268 73.9323 60.1223 76.2432 54.8905 80.502C51.788 83.022 48.6682 85.5022 45.5398 88.0015C44.2867 89.8803 42.344 90.9916 40.6174 92.3225C38.2495 94.1494 36.3206 96.3548 34.4539 98.6536C33.823 99.4296 33.2959 100.646 31.8613 100.064" fill="#1072BA"/>
<path fill-rule="evenodd" clip-rule="evenodd" d="M22.3724 158.717C27.746 154.742 32.2036 149.942 36.1322 144.523C41.0962 137.679 44.8554 130.129 49.3199 122.998C51.1399 120.091 53.9295 118.076 55.8878 115.31C57.8547 113.409 58.7465 110.541 61.3564 109.207C61.932 108.765 62.5663 108.613 63.5307 108.938C53.506 120.345 46.5458 133.778 37.8416 145.991C33.5725 151.985 28.5204 157.639 21.9403 161.479C21.4408 161.768 20.931 162.243 20.2586 161.868C20.288 160.361 21.4685 159.633 22.3811 158.717" fill="#1072BA"/>
<path fill-rule="evenodd" clip-rule="evenodd" d="M64.6404 70.6346C63.1781 71.0096 61.728 71.4072 60.2606 71.7494C59.3221 71.9706 58.2038 72.2765 57.7423 71.1064C57.2549 69.8706 58.5167 69.6321 59.2391 69.3054C62.1342 68.0092 65.0846 66.8079 68.3322 66.8062C74.2278 66.8062 79.9211 65.3578 85.706 64.5213C92.2981 63.5689 98.8712 64.0909 105.303 65.9593C107.645 66.9548 109.98 67.959 112.327 68.9459C113.423 69.4074 114.473 69.8966 114.747 71.2309C113.898 71.7667 113.257 71.1185 112.603 70.8748C105.543 68.22 98.3769 65.6188 90.7167 66.5538C81.9883 67.6289 73.2132 68.5553 64.6317 70.6294" fill="#1072BA"/>
<path fill-rule="evenodd" clip-rule="evenodd" d="M114.008 167.281C111.67 157.799 107.56 148.971 103.484 140.194C100.282 133.301 95.7307 127.165 89.5084 122.5C89.3468 122.389 89.2063 122.25 89.0936 122.089C88.9273 121.785 88.7768 121.473 88.6425 121.154C92.9324 122.231 95.7946 124.918 98.4667 128.047C104.44 135.036 108.389 143.056 111.084 151.774C112.099 155.058 113.289 158.278 114.401 161.529C114.574 163.202 115.491 164.747 115.203 166.498C115.085 167.233 115.03 167.983 114.005 167.281" fill="#1072BA"/>
<path fill-rule="evenodd" clip-rule="evenodd" d="M53.06 88.8847C54.1385 88.6496 55.3812 87.0923 56.1331 88.1622C56.7225 89.0074 54.9232 89.6469 54.1765 90.34C46.003 97.855 37.2832 104.843 31.1733 114.334C30.9556 114.679 30.7827 115.051 30.5891 115.41C25.2899 122.97 20.4227 130.778 17.1975 139.523C17.3306 134.036 20.0045 129.429 21.9195 124.579C22.1356 124.336 21.9696 123.888 22.3724 123.738C22.7785 123.067 23.1847 122.39 23.5822 121.714C23.7551 120.749 24.2252 119.928 24.7645 119.121C31.2165 109.548 38.5916 100.781 47.3252 93.1953C49.216 91.7313 50.6558 89.6728 53.0531 88.8847" fill="#1072BA"/>
<path fill-rule="evenodd" clip-rule="evenodd" d="M24.8043 141.134C27.1929 136.172 29.528 131.184 31.9805 126.254C35.8055 118.577 40.6934 111.532 45.1388 104.219C45.2759 103.979 45.4388 103.755 45.6245 103.55C46.0998 103.056 46.6529 102.37 47.3529 102.84C48.1583 103.379 47.5154 104.084 47.1956 104.649C44.1018 110.113 40.925 115.538 37.902 121.038C35.4149 125.573 32.9796 130.136 30.2971 134.563C28.0726 138.222 27.0512 142.458 24.8094 146.117C24.8094 146.492 24.6694 146.762 24.2702 146.841C23.2038 147.394 22.5902 149.522 21.3129 148.57C20.561 148.004 22.1304 146.553 22.6092 145.479C23.2746 144 24.4154 142.757 24.8129 141.138" fill="#1072BA"/>
<path fill-rule="evenodd" clip-rule="evenodd" d="M84.5567 151.034C85.4381 151.121 86.4078 151.128 85.2273 152.327C84.2041 153.364 83.3675 154.534 83.3105 156.085C83.4453 156.871 83.2241 157.658 83.3312 158.444C83.3153 158.639 83.2829 158.833 83.2344 159.023C82.9476 159.832 82.9476 160.715 83.2344 161.524C83.3291 161.903 83.3836 162.29 83.3969 162.68C83.4194 163.356 83.3865 164.039 83.6233 164.696C83.6846 164.883 83.7348 165.074 83.7737 165.268C84.7019 170.078 87.2858 174.082 90.0219 177.994C92.2411 181.16 94.6384 184.195 96.97 187.277C98.0866 188.739 99.1063 190.265 100.098 191.812C100.489 192.422 101.073 192.993 100.752 193.843C100.693 194.448 100.717 195.101 99.8634 195.183C99.2308 195.243 98.8799 194.872 98.5463 194.414C97.5992 193.109 96.6278 191.821 95.6651 190.523C93.4683 186.591 90.7564 183.067 87.8182 179.646C82.7643 173.759 79.8381 166.925 80.0576 159.018C80.151 155.637 81.0463 152.567 84.5515 151.034" fill="#1072BA"/>
<path fill-rule="evenodd" clip-rule="evenodd" d="M59.3375 47.4118C60.7617 46.9141 62.1825 46.4128 63.6084 45.9237C64.3239 45.68 65.0343 45.3239 65.7672 45.2565C67.0496 45.1407 68.8662 44.9108 69.1738 46.3333C69.4988 47.8336 67.6183 47.7385 66.5812 48.0289C64.184 48.6978 61.9146 49.6795 59.5968 50.5506C51.8899 53.4405 45.0783 58.0519 37.8086 61.7645C36.8961 62.2311 35.9938 62.7687 34.9188 62.8015C33.6207 62.8015 33.842 61.9166 33.9491 61.1042L36.8321 58.9731C37.1311 58.2091 37.8052 57.8185 38.4499 57.44C41.6975 55.5388 44.6721 53.1294 48.4089 52.1062C50.0682 51.6516 51.418 50.4659 52.9667 49.7089C55.0114 48.7116 57.1148 47.8802 59.3393 47.4153" fill="#1072BA"/>
<path fill-rule="evenodd" clip-rule="evenodd" d="M84.5566 188.022C81.5423 184.999 78.5522 181.973 76.4902 178.153C74.2813 174.062 73.3583 169.708 73.4344 165.071C74.6201 164.989 74.7549 165.836 74.8966 166.538C76.6682 175.377 81.7687 181.986 88.7238 187.408C90.7771 189.01 93.1692 190.174 94.946 192.132C95.4645 193.582 96.5015 194.68 97.5386 195.762C98.0882 196.335 98.3233 196.84 97.822 197.525C97.2206 198.093 96.6986 197.697 96.1714 197.393C95.5803 197.22 94.9374 197.146 94.469 196.702C91.624 193.974 88.3107 191.821 85.3569 189.23C84.9783 188.896 84.8746 188.397 84.5601 188.034" fill="#1072BA"/>
<path fill-rule="evenodd" clip-rule="evenodd" d="M33.4739 192.749C37.2764 192.898 39.9675 191.486 42.8245 190.775C48.7961 189.289 54.8835 188.691 61.0141 188.433C61.6139 188.409 62.224 188.632 62.8307 188.762C63.6067 188.935 64.101 189.429 64.0319 190.205C63.9403 191.242 63.0865 190.896 62.4314 190.957C55.103 191.619 47.7746 191.94 40.6744 194.46C36.7449 195.837 32.5303 196.194 28.4253 195.497C27.6112 195.359 26.524 195.29 26.5448 194.27C26.569 193.114 27.7011 193.435 28.4685 193.347C30.3835 193.122 32.2986 192.886 33.4808 192.742" fill="#1072BA"/>
<path fill-rule="evenodd" clip-rule="evenodd" d="M50.5608 176.077C53.2318 174.65 55.7227 172.91 57.9808 170.892C58.3455 170.572 58.7983 169.855 59.3462 170.358C59.9978 170.958 59.2926 171.481 58.9038 171.901C53.8534 177.313 47.9959 181.604 41.0598 184.252C37.3455 185.671 33.5067 186.764 29.7267 188.001C28.5652 188.134 27.4107 188.307 26.2475 188.388C25.932 188.424 25.6148 188.34 25.3573 188.155C25.0999 187.969 24.9206 187.695 24.8544 187.384C24.6556 186.551 25.3522 186.333 25.9433 186.157C27.1963 185.787 28.4615 185.455 29.7284 185.141C36.8408 183.359 43.6403 180.82 49.7778 176.736C50.0493 176.533 50.3079 176.314 50.5522 176.079" fill="#1072BA"/>
<path fill-rule="evenodd" clip-rule="evenodd" d="M34.7771 57.2948C35.0744 55.4644 36.5055 54.5173 37.8658 53.6652C44.3697 49.6294 51.2556 46.3489 58.1675 43.0718C60.824 41.8084 63.7848 41.7271 66.2374 40.1336C66.7282 39.8121 67.3124 40.156 67.8448 40.2805C68.2578 40.3755 68.709 40.5432 68.7764 40.9718C68.8472 41.4731 68.3201 41.6131 67.9623 41.7859C64.9791 43.2187 61.989 44.636 59.0023 46.0654C58.387 46.361 57.7924 46.6859 57.1754 46.9953C56.5791 47.8249 55.6458 48.1792 54.766 48.5145C50.9756 49.9457 47.3529 51.7985 43.5193 53.1155C41.3485 53.8622 39.4732 55.1153 37.667 56.5101C36.8512 57.1375 36.0389 58.1469 34.7771 57.2948Z" fill="#1072BA"/>
<path fill-rule="evenodd" clip-rule="evenodd" d="M114.902 92.5748C110.847 89.6072 106.416 87.3119 101.917 85.103C96.6744 82.5276 90.8687 82.3773 85.3603 80.9669C84.745 80.8113 83.7114 81.119 83.7546 80.1511C83.7978 79.3249 84.809 79.4355 85.4243 79.3664C91.8332 78.6491 97.6872 80.5625 103.33 83.3089C105.551 84.3891 107.672 85.6733 109.841 86.8625C113.241 89.5277 117.534 90.8827 120.542 94.1217C121.024 94.6403 122.303 94.9859 121.828 95.7032C121.261 96.5674 120.493 95.3575 119.769 95.2193C119.636 95.1934 119.508 95.138 119.38 95.1C117.813 94.3896 115.993 94.1287 114.902 92.5748Z" fill="#1072BA"/>
<path fill-rule="evenodd" clip-rule="evenodd" d="M113.542 105.89C110.037 100.878 105.372 97.1844 100.233 93.9938C99.1252 93.3024 98.0433 92.5592 97.001 91.7746C96.5949 91.4686 95.9865 91.0262 96.3356 90.435C96.6243 89.9563 97.1998 90.3106 97.6682 90.4091C100.214 90.9622 102.416 92.2257 104.483 93.7501C109.822 97.6822 114.081 102.639 117.773 108.096C118.794 109.606 119.38 111.407 120.167 113.075C120.542 114.66 121.722 115.803 122.414 117.213C122.69 117.787 123.56 118.456 122.434 119.081C119.774 115.708 117.403 112.115 115.346 108.343C114.859 107.463 114.15 106.706 113.542 105.89Z" fill="#1072BA"/>
<path fill-rule="evenodd" clip-rule="evenodd" d="M32.0739 198.835C35.2317 198.916 38.3463 198.183 41.5404 198.802C43.191 199.122 44.9971 198.975 46.6841 198.686C50.0492 198.124 53.252 198.292 56.3631 199.784C57.4468 200.302 58.6687 200.093 59.832 200.178C60.8258 200.25 61.7332 200.672 61.588 201.749C61.4463 202.786 60.4421 202.729 59.5865 202.587C54.6381 201.766 49.6569 201.766 44.6739 202.02C42.5307 202.129 40.6502 201.201 38.6245 200.845C36.5678 200.484 34.3243 201.115 32.4663 199.666C32.2589 199.504 31.9599 199.45 32.0618 198.835" fill="#1072BA"/>
<path fill-rule="evenodd" clip-rule="evenodd" d="M23.145 164.291C27.7943 161.313 31.3739 157.175 35.0899 153.198C37.5874 150.53 39.8689 147.667 42.2645 144.892C42.6482 144.453 43.0457 143.666 43.744 144.211C44.5096 144.807 43.9289 145.391 43.4553 145.939C42.6257 146.883 41.879 147.963 41.8099 149.214C41.6975 151.302 40.4272 152.498 38.9909 153.738C34.5472 157.554 30.3022 161.605 25.6822 165.226C24.4914 165.878 23.3213 166.573 22.0993 167.157C21.643 167.375 20.9776 167.516 20.7062 166.811C20.4711 166.203 21.0311 166.001 21.3976 165.714C21.9737 165.245 22.5562 164.776 23.145 164.307" fill="#1072BA"/>
<path fill-rule="evenodd" clip-rule="evenodd" d="M93.6825 74.8121C92.6023 74.4664 91.5047 74.2711 90.3675 74.3852C90.2203 74.5351 90.035 74.642 89.8317 74.6946C89.3926 74.7568 88.9968 74.6946 88.7324 74.2797C87.6314 73.7889 86.4561 74.0931 85.3223 73.9686C84.0502 73.8304 84.0692 73.2064 84.7277 72.3526C84.9005 72.3422 85.0734 72.3301 85.2324 72.3163C87.3445 72.7276 89.5085 72.1141 91.6136 72.6447C101.474 73.0837 110.381 76.1153 118.077 82.4257C118.817 83.0358 119.538 83.6701 120.269 84.2906C120.626 85.5506 119.774 85.5005 119.014 85.3674C118.253 85.2343 117.631 84.7711 117.016 84.3304C111.526 80.3239 105.125 78.4141 98.7692 76.4108C97.0736 75.8785 95.321 75.5311 93.6843 74.8069" fill="#1072BA"/>
<path fill-rule="evenodd" clip-rule="evenodd" d="M22.3725 176.518C25.4456 172.662 29.929 170.567 33.6762 167.549C37.7517 164.265 41.9258 161.104 45.9149 157.713C46.2606 157.495 47.4117 158.117 46.7878 156.88C46.9883 156.377 47.3063 156.015 47.8974 156.015C48.9949 155.763 49.9386 155.784 50.1063 157.225C43.6576 163.771 36.0821 168.837 28.3735 173.718C26.932 174.632 25.4352 175.482 24.2651 176.765C23.5823 177.074 22.8322 177.904 22.3742 176.518" fill="#1072BA"/>
<path fill-rule="evenodd" clip-rule="evenodd" d="M31.9391 117.519C34.1238 114.181 36.3396 110.865 38.4759 107.494C39.6858 105.603 41.2413 104.057 42.8677 102.56C43.1788 102.271 43.5038 101.659 44.0448 102.154C44.463 102.537 44.0137 102.957 43.8028 103.223C39.6909 108.443 36.9826 114.55 33.2008 119.989C31.4033 122.581 30.126 125.52 28.5601 128.285C28.1228 129.054 27.6095 129.856 26.9354 130.397C25.9658 131.175 25.5855 130.66 25.7584 129.571C27.3018 125.288 29.5608 121.375 31.9391 117.522" fill="#1072BA"/>
<path fill-rule="evenodd" clip-rule="evenodd" d="M117.685 130.771C116.157 125.891 113.537 121.503 111.487 116.859C110.989 115.732 109.693 114.036 110.858 113.412C112.322 112.629 112.586 114.847 113.222 115.784C116.053 119.921 118.259 124.453 119.768 129.234C120.582 132.986 122.417 136.481 122.566 140.401C122.58 140.747 122.702 141.082 122.711 141.423C122.721 141.87 123.015 142.487 122.396 142.676C121.653 142.902 121.499 142.226 121.333 141.711C120.286 138.436 119.259 135.154 118.205 131.882C118.057 131.501 117.883 131.129 117.687 130.771" fill="#1072BA"/>
<path fill-rule="evenodd" clip-rule="evenodd" d="M88.2882 198.404C88.5354 199.129 89.7677 200.001 88.9122 200.504C87.8129 201.154 86.4803 200.504 85.4796 199.6C83.0598 198.892 81.461 196.994 79.603 195.508C78.2307 194.412 76.5887 193.515 75.8386 191.767C73.5761 189.569 71.4381 187.222 68.4929 185.858C67.983 185.625 67.1326 185.324 67.385 184.586C67.684 183.73 68.4929 184.024 69.1687 184.221C71.1944 184.812 72.8813 185.986 74.5267 187.251C76.7062 188.928 78.9099 190.568 81.1033 192.225C83.8808 193.841 86.202 195.986 88.2899 198.404" fill="#1072BA"/>
<path fill-rule="evenodd" clip-rule="evenodd" d="M107.487 64.3363C102.257 62.5595 96.7712 62.2017 91.3458 61.5069C89.7795 61.3133 88.196 61.3029 86.6273 61.4758C84.7831 61.6676 82.9164 61.7506 81.214 60.743C80.3498 59.5331 80.4517 59.0336 82.1404 58.9852C91.2663 58.738 100.126 60.4111 108.943 62.4904C109.213 62.5455 109.477 62.632 109.727 62.7479C110.344 63.0676 111.089 63.4825 110.844 64.2551C110.598 65.0277 109.701 64.9239 109.036 64.8462C108.509 64.7839 107.999 64.5143 107.48 64.3363" fill="#1072BA"/>
<path fill-rule="evenodd" clip-rule="evenodd" d="M84.5463 200.902C85.8149 202.323 87.0974 203.73 88.3367 205.181C88.6236 205.527 89.1024 205.97 88.7394 206.434C88.3453 206.953 87.7024 206.78 87.2374 206.479C86.4251 205.961 85.5989 205.442 84.8989 204.808C81.9105 202.053 78.603 199.665 75.047 197.696C72.4873 196.278 70.3164 194.381 68.7177 191.897C68.4705 191.515 68.0125 191.069 68.4273 190.615C68.8421 190.16 69.3191 190.559 69.7236 190.777C71.3569 191.641 72.9799 192.526 74.608 193.409C74.8949 193.606 75.3322 193.463 75.5587 193.715C77.7537 196.145 80.8009 197.355 83.3572 199.256C83.9327 199.683 84.192 200.319 84.5498 200.895" fill="#1072BA"/>
<path fill-rule="evenodd" clip-rule="evenodd" d="M17.3843 110.545C22.3431 101.818 29.3794 94.7543 35.9698 87.3343C36.4485 86.795 37.1088 86.4165 37.6861 85.9637C38.6108 85.9965 38.7404 86.541 38.5365 87.298C38.5209 87.4328 38.5537 87.6229 38.476 87.6973C33.6364 92.3985 29.3898 97.6528 24.7248 102.518C24.3463 102.909 23.8123 103.253 23.6411 103.728C22.3362 107.358 19.9527 110.296 17.6574 113.305C16.9505 113.407 16.4337 113.347 16.7829 112.403C17.0076 111.793 17.1856 111.167 17.3843 110.548" fill="#1072BA"/>
<path fill-rule="evenodd" clip-rule="evenodd" d="M115.74 137.38C114.505 133.6 113.234 129.832 111.647 126.177C111.024 124.725 110.486 123.238 110.035 121.724C109.862 121.156 109.361 120.25 110.227 119.932C110.918 119.679 111.165 120.592 111.456 121.092C113.178 124.066 114.701 127.151 116.015 130.326C116.158 130.63 116.317 130.926 116.49 131.213C117.527 135.117 119.166 138.839 119.97 142.812C120.13 143.616 120.792 144.855 119.873 145.178C118.755 145.576 118.703 144.103 118.357 143.383C117.42 141.412 116.605 139.387 115.74 137.38Z" fill="#1072BA"/>
<path fill-rule="evenodd" clip-rule="evenodd" d="M103.092 57.5904C97.8427 58.2955 92.4744 55.5388 86.8225 56.46C85.7578 56.6328 84.7623 56.2872 83.7978 55.9415C83.2793 55.7548 82.3857 55.7877 82.4687 54.9217C82.5465 54.1042 83.4107 54.1941 83.9516 54.1111C85.7855 53.8311 87.6314 53.6306 89.5102 53.8155C91.4304 54.0022 93.406 54.3116 95.2813 54.0454C98.4857 53.5874 101.196 54.9096 104.03 55.8758C104.568 56.059 105.622 56.142 105.261 57.1306C104.995 57.8617 104.184 57.8773 103.092 57.5886" fill="#1072BA"/>
<path fill-rule="evenodd" clip-rule="evenodd" d="M68.0211 179.29C67.722 178.193 68.0504 177.781 69.2448 177.982C72.0102 178.438 74.3349 179.638 76.2344 181.694C78.5725 184.228 81.0539 186.626 83.6665 188.876C84.5981 189.324 85.5867 189.74 85.5919 190.998C85.5919 191.517 85.2082 191.883 84.7277 192.035C83.5991 192.381 82.7366 191.945 82.066 191.038C80.6833 190.129 79.3092 189.215 78.2013 187.956C75.256 184.581 71.8264 181.662 68.0245 179.294" fill="#1072BA"/>
<path fill-rule="evenodd" clip-rule="evenodd" d="M48.6993 203.372C51.3351 203.804 54.9682 203.852 58.1726 205.719C58.7015 206.028 59.7973 206.125 59.4758 206.958C59.1751 207.734 58.1415 207.65 57.4294 207.377C55.8531 206.78 54.2042 206.651 52.5675 206.459C51.401 206.334 50.2284 206.276 49.0554 206.286C47.9665 206.277 46.767 206.039 47.5396 207.999C48.0321 209.248 46.6633 209.314 45.965 209.013C44.2062 208.244 42.5066 207.347 40.8801 206.327C40.0349 205.799 39.8966 205.066 41.141 204.578C43.2912 203.738 45.4914 203.273 48.6993 203.368" fill="#1072BA"/>
<path fill-rule="evenodd" clip-rule="evenodd" d="M30.1985 188.839C35.2282 188.402 39.7894 186.582 44.1398 184.135C45.9338 183.12 47.7487 182.14 49.5687 181.179C50.1684 180.866 50.9375 180.476 51.3645 181.312C51.7914 182.149 50.9946 182.522 50.4086 182.851C48.9136 183.692 47.384 184.468 45.901 185.326C45.0057 185.844 44.2054 186.499 43.8027 187.509C40.918 189.387 37.4543 189.064 34.3087 189.984C32.0134 190.649 29.6662 191.297 27.2482 191.406C26.7055 191.432 25.8102 191.669 25.6926 190.862C25.5976 190.231 26.4151 190.17 26.9129 189.997C28.0052 189.605 29.1062 189.232 30.1968 188.848" fill="#1072BA"/>
<path fill-rule="evenodd" clip-rule="evenodd" d="M40.977 156.816C36.4365 162.813 30.2022 166.96 24.5901 171.787C24.0249 172.271 23.3508 172.627 22.732 173.045C21.097 172.399 20.9362 171.663 22.274 170.551C23.7812 169.302 25.354 168.132 26.8975 166.922C29.4123 166.139 30.6325 163.767 32.5632 162.255C35.2595 160.141 37.3767 157.331 40.4032 155.587C40.7644 155.525 41.2034 155.293 41.4004 155.796C41.5733 156.219 41.1809 156.498 40.977 156.814" fill="#1072BA"/>
<path fill-rule="evenodd" clip-rule="evenodd" d="M111.967 74.8121C111.924 75.1716 111.703 75.3306 111.404 75.2943C110.999 75.2442 110.56 75.2045 110.209 75.023C103.559 71.5835 96.2993 71.4331 89.0746 71.0788C88.9346 71.0788 88.7981 71.0615 88.6615 71.0615C87.7178 71.0528 86.546 70.8558 86.5425 69.8758C86.5425 68.6054 87.8647 69.0375 88.6529 69.003C94.7628 68.7368 100.752 69.3849 106.568 71.3951C108.204 71.933 109.744 72.7295 111.129 73.7543C111.501 74.0361 111.962 74.2728 111.967 74.819" fill="#1072BA"/>
<path fill-rule="evenodd" clip-rule="evenodd" d="M31.4119 88.5269C31.488 89.6538 30.6774 90.2346 29.9653 90.8827C24.6798 95.7084 20.1463 101.129 16.9228 107.56C16.6981 108.006 16.4544 107.951 16.1174 107.89C15.7302 106.445 16.3766 105.256 16.9608 103.996C19.5379 98.4461 23.0292 93.5963 27.6993 89.6141C29.1909 87.7301 30.1001 87.4657 31.4119 88.5269Z" fill="#1072BA"/>
<path fill-rule="evenodd" clip-rule="evenodd" d="M101.104 184.302C99.967 182.424 98.9317 180.472 97.6665 178.683C95.6857 175.88 94.8354 172.738 94.602 169.395C94.5484 168.614 93.921 167.345 95.1344 167.088C96.3045 166.837 96.3546 168.151 96.607 168.956C98.0364 173.503 99.8909 177.852 102.484 181.867C102.676 182.146 102.882 182.414 103.102 182.671L104.544 185.528C104.691 185.965 104.841 186.392 104.371 186.738C102.553 186.911 102.188 185.12 101.104 184.299" fill="#1072BA"/>
<path fill-rule="evenodd" clip-rule="evenodd" d="M124.389 109.275C123.065 109.186 122.834 107.845 121.994 107.19C117.329 103.534 113.044 99.4192 109.203 94.9064C108.49 94.0681 107.764 93.235 107.095 92.3639C106.87 92.0684 106.523 91.6587 106.922 91.2595C107.378 90.8049 107.655 91.3494 107.918 91.562C110.374 93.5513 112.812 95.5684 115.253 97.5768C118.132 99.8237 120.97 102.126 122.725 105.45C123.21 106.753 124.526 107.696 124.38 109.275" fill="#1072BA"/>
<path fill-rule="evenodd" clip-rule="evenodd" d="M109.926 181.777C106.48 175.279 103.296 168.661 100.727 161.763C100.6 161.417 100.219 160.916 100.795 160.712C101.557 160.44 101.659 161.23 101.898 161.654C104.561 166.303 107.567 170.759 109.848 175.621C110.36 177.035 110.874 178.447 111.39 179.857C111.908 181.267 111.509 181.974 109.924 181.777" fill="#1072BA"/>
<path fill-rule="evenodd" clip-rule="evenodd" d="M93.8313 48.5232C89.054 47.6763 84.2698 47.9667 79.4855 48.1084C78.3915 48.1447 77.2991 48.3279 76.2016 48.4644C75.5189 48.5509 74.7376 48.8101 74.4732 47.8889C74.1984 46.9314 74.7636 46.2365 75.6001 45.9738C76.5928 45.6894 77.6122 45.5081 78.6421 45.4328C83.3174 44.9634 88.0385 45.5493 92.4572 47.1474C93.0276 47.3531 93.8969 47.3807 93.8192 48.5301" fill="#1072BA"/>
<path fill-rule="evenodd" clip-rule="evenodd" d="M69.9206 198.161C71.8692 198.205 73.7426 198.922 75.2233 200.19C76.8929 201.611 78.5746 203.011 80.6712 203.863C82.0781 204.437 82.4099 206.11 83.326 207.198C83.4988 207.411 83.5697 207.703 83.2741 207.904C83.1071 208.029 82.9065 208.101 82.698 208.112C82.4896 208.122 82.2828 208.07 82.104 207.962C80.564 207.074 78.782 206.588 77.4927 205.287C75.6414 203.431 73.4345 201.968 71.0043 200.985C70.3072 200.693 69.6799 200.257 69.1635 199.706C68.8075 199.331 68.5983 198.892 68.849 198.396C69.0996 197.9 69.5541 198.121 69.9223 198.161" fill="#1072BA"/>
<path fill-rule="evenodd" clip-rule="evenodd" d="M29.3741 100.9C30.743 100.603 30.5235 101.371 30.2124 102.169C29.521 103.944 28.1228 105.237 27.0719 106.768C26.607 107.444 26.1386 108.117 25.6754 108.789C22.7578 112.32 20.0252 115.984 17.7973 120.369C17.2339 118.641 17.2339 118.641 18.6373 115.025C22.1131 110.241 25.2865 105.227 29.3741 100.904" fill="#1072BA"/>
<path fill-rule="evenodd" clip-rule="evenodd" d="M25.2209 178.065C29.9671 175.617 34.8014 173.318 39.0291 169.988C39.4594 169.642 39.8587 169.258 40.334 168.999C40.5465 168.876 40.797 168.837 41.037 168.888C41.2771 168.939 41.4897 169.077 41.6338 169.276C41.9794 169.697 41.6493 170.033 41.4229 170.368C40.4878 171.751 39.131 172.715 37.9661 173.865C34.575 175.535 31.1816 177.206 27.7859 178.877C27.2273 179.146 26.6543 179.384 26.0696 179.591C25.4784 179.8 24.7197 180.025 24.355 179.418C23.8901 178.645 25.0187 178.585 25.2192 178.063" fill="#1072BA"/>
<path fill-rule="evenodd" clip-rule="evenodd" d="M94.5121 76.0219C96.8178 76.6839 99.101 77.4461 101.434 77.9888C105.014 78.8219 107.935 80.8995 110.953 82.8042C111.62 83.2259 112.398 83.6926 112.322 84.7054C111.949 84.6985 111.577 84.6893 111.205 84.6778C105.956 81.7256 100.447 79.3975 94.5433 78.1202C93.9141 77.9802 92.9877 78.1288 93.0326 77.1229C93.0655 76.2743 93.762 76.0461 94.5121 76.0185" fill="#1072BA"/>
<path fill-rule="evenodd" clip-rule="evenodd" d="M39.4904 178.276C39.1102 179.542 38.4257 179.947 37.8001 180.306C34.0978 182.432 30.1191 183.658 25.8309 183.803C25.0255 183.832 24.1924 183.773 24.0818 182.794C23.9625 181.767 24.9304 181.909 25.5406 181.737C29.0492 180.744 32.4645 179.413 36.0561 178.72C37.1087 178.519 38.1855 178.438 39.4904 178.276Z" fill="#1072BA"/>
<path fill-rule="evenodd" clip-rule="evenodd" d="M110.158 172.259C108.602 169.438 107.029 166.631 105.532 163.79C104.808 162.407 104.165 160.962 104.658 158.895C106.637 162.006 108.445 164.86 110.254 167.71C111.051 169.147 111.849 170.584 112.648 172.02C113.166 172.999 113.453 174.082 113.487 175.189C113.514 175.695 113.336 176.2 112.757 176.267C112.287 176.324 112.09 175.921 111.924 175.514C111.463 174.366 110.942 173.242 110.158 172.268" fill="#1072BA"/>
<path fill-rule="evenodd" clip-rule="evenodd" d="M97.0149 180.936L100.275 185.645C101.403 187.892 102.591 190.112 103.638 192.386C104.139 193.482 104.248 194.616 102.378 194.246C101.025 193.33 100.403 191.861 99.5816 190.545C98.8348 189.33 97.9885 188.178 97.0512 187.102C96.1645 185.836 94.9304 184.764 94.7541 183.091C95.181 182.026 95.8275 181.19 97.0149 180.932" fill="#1072BA"/>
<path fill-rule="evenodd" clip-rule="evenodd" d="M51.5062 196.406C48.5679 196.258 45.8302 196.476 43.1529 197.271C42.5929 197.443 41.8393 197.803 41.5385 197.006C41.2758 196.304 41.9827 195.898 42.4788 195.573C43.6455 194.815 44.9573 194.415 46.3228 194.146C49.3302 193.553 52.3566 193.594 55.3692 194.023C56.0294 194.118 56.9973 194.287 56.8107 195.406C56.6378 196.401 55.848 196.427 55.0598 196.425C53.8205 196.425 52.5796 196.425 51.5062 196.425" fill="#1072BA"/>
<path fill-rule="evenodd" clip-rule="evenodd" d="M47.1801 188.034C46.4576 187.215 47.0868 186.807 47.6986 186.439C50.3689 184.852 53.1769 183.51 56.0883 182.427C57.0804 182.052 58.1278 182.183 59.1545 182.403C60.6011 182.721 61.0851 183.411 60.0601 184.7C55.6786 185.467 51.4838 186.947 47.1836 188.034" fill="#1072BA"/>
<path fill-rule="evenodd" clip-rule="evenodd" d="M48.4816 172.746C49.6776 171.735 50.8391 170.672 52.0905 169.732C52.5744 169.367 53.2399 168.712 53.8984 169.328C54.5569 169.943 54.2095 170.728 53.8984 171.428C53.4576 172.413 52.6626 173.021 51.7517 173.56C50.9981 174.005 50.3344 174.598 49.631 175.133C47.6053 176.125 45.7836 177.525 43.5816 178.174C42.8384 178.391 41.81 179 41.4556 177.94C41.1687 177.09 42.3285 177.116 42.8919 176.851C45.0282 175.849 46.9485 174.568 48.4747 172.746" fill="#1072BA"/>
<path fill-rule="evenodd" clip-rule="evenodd" d="M79.8018 41.181C81.0116 41.2605 82.0279 41.3728 82.9751 41.8499C83.3208 42.0227 83.5161 42.3183 83.4469 42.6778C83.3778 43.0373 83.0667 43.1859 82.6692 43.1669C79.2314 42.9941 76.001 43.8825 72.8087 45.0318C72.2888 45.2243 71.7215 45.2479 71.1874 45.0992C70.4961 44.8642 69.6008 44.56 69.5282 43.7459C69.4642 43.039 70.3509 42.9405 70.8763 42.664C73.742 41.1551 76.9465 41.7324 79.8018 41.181Z" fill="#1072BA"/>
<path fill-rule="evenodd" clip-rule="evenodd" d="M115.255 96.3462C114.359 95.1121 112.736 94.4691 112.335 92.7891C113.175 92.2222 113.69 93.1521 114.378 93.1866C115.911 93.5098 117.329 94.0215 118.181 95.4785C120.137 97.2069 122.18 98.8489 123.426 101.213C123.722 101.779 124.339 102.364 123.568 103.033C123.339 103.197 123.057 103.267 122.778 103.229C122.5 103.191 122.246 103.048 122.07 102.829C120.068 100.378 117.13 98.9249 115.262 96.3462" fill="#1072BA"/>
<path fill-rule="evenodd" clip-rule="evenodd" d="M105.864 182.574C104.173 179.549 102.482 176.526 100.793 173.503C101.485 173.32 102.147 172.942 102.907 173.052C104.52 175.862 106.133 178.67 107.747 181.476C108.125 182.422 108.505 183.367 108.88 184.315C109.086 184.833 108.943 185.281 108.474 185.55C107.869 185.896 107.638 185.39 107.382 184.987L105.857 182.567" fill="#1072BA"/>
<path fill-rule="evenodd" clip-rule="evenodd" d="M24.0523 132.195C25.3884 131.697 25.5249 132.461 25.1481 133.389C24.5397 134.889 23.7792 136.327 23.0741 137.793C21.4632 140.061 20.3086 142.652 18.2346 144.617C19.2941 140.043 20.9412 135.779 24.0523 132.195Z" fill="#1072BA"/>
<path fill-rule="evenodd" clip-rule="evenodd" d="M115.275 159.806C114.065 156.233 112.366 152.794 112.064 148.967C112.017 148.354 111.148 146.689 113.196 147.32C115.011 150.777 115.994 154.457 116.307 158.328C116.366 159.068 116.826 160.172 115.27 159.806" fill="#1072BA"/>
<path fill-rule="evenodd" clip-rule="evenodd" d="M88.6944 196.742C87.602 195.501 85.5193 194.922 85.8736 192.526C89.1921 194.389 92.4813 196.057 95.3469 198.403C95.5768 198.653 95.8153 198.897 96.0279 199.162C96.3822 199.595 96.8161 200.161 96.4617 200.638C95.9761 201.293 95.3573 200.81 94.8336 200.485C92.7872 199.24 90.7408 197.991 88.6944 196.74" fill="#1072BA"/>
<path fill-rule="evenodd" clip-rule="evenodd" d="M120.652 127.45C120.111 125.579 119.245 123.795 119.064 121.823C119.019 121.334 118.718 120.661 119.394 120.395C120.106 120.112 120.167 120.979 120.582 121.247C121.543 123.51 122.927 125.611 123.238 128.123C123.316 128.743 123.945 129.597 123.008 129.924C122.099 130.233 121.755 129.327 121.382 128.678C121.145 128.264 120.896 127.858 120.652 127.45Z" fill="#1072BA"/>
<path fill-rule="evenodd" clip-rule="evenodd" d="M29.7163 149.016C27.6993 151.719 24.8768 153.494 22.2669 155.521C21.681 155.666 21.0968 156.005 20.3467 155.376C22.8909 153.07 25.6771 151.045 27.7546 148.307C28.0087 148.117 28.2731 147.93 28.5203 147.742C29.2116 147.887 29.5348 148.39 29.7163 149.016Z" fill="#1072BA"/>
<path fill-rule="evenodd" clip-rule="evenodd" d="M39.907 175.904C39.3367 174.943 40.1646 174.508 40.6848 174.06C42.8626 172.183 45.5468 170.949 47.4826 168.762C47.7194 168.495 48.0668 168.311 48.3796 168.558C48.7961 168.894 48.5801 169.355 48.3554 169.67C47.7159 170.551 47.0107 171.388 46.3297 172.24C44.3421 173.73 42.4201 175.336 39.907 175.904Z" fill="#1072BA"/>
<path fill-rule="evenodd" clip-rule="evenodd" d="M112.745 140.728C112.826 139.725 111.907 138.21 114.012 138.244C115.718 140.318 115.977 142.857 116.382 145.355C116.452 145.79 116.299 146.278 115.88 146.381C115.362 146.508 115.03 146.086 114.753 145.662C113.765 144.145 113.371 142.392 112.745 140.728Z" fill="#1072BA"/>
<path fill-rule="evenodd" clip-rule="evenodd" d="M113.659 85.5644C114.301 84.7642 115.002 84.8523 115.763 85.3916C117.094 86.3301 118.431 87.2496 119.766 88.1812C120.317 89.2079 121.525 89.8785 121.551 91.638C118.936 89.9269 116.565 88.3903 114.211 86.8175C114.009 86.6831 113.849 86.4937 113.752 86.2716C113.654 86.0495 113.622 85.8041 113.659 85.5644Z" fill="#1072BA"/>
<path fill-rule="evenodd" clip-rule="evenodd" d="M122.322 112.927C121.384 110.96 119.484 109.532 118.957 107.05C121.318 107.655 122.241 109.529 123.478 111.025C123.914 112.536 125.077 113.872 124.671 115.768C123.288 115.179 123.35 113.592 122.322 112.93" fill="#1072BA"/>
<path fill-rule="evenodd" clip-rule="evenodd" d="M20.2966 122.792C19.5603 124.823 19.0608 126.968 17.8873 128.856C17.6211 129.288 17.3221 129.706 16.7638 129.526C16.0897 129.307 16.1174 128.679 16.2142 128.143C16.6203 125.943 17.7403 124.071 18.9398 122.22C19.1576 121.887 19.3616 121.411 19.8455 121.544C20.4816 121.717 20.2448 122.312 20.2966 122.792Z" fill="#1072BA"/>
<path fill-rule="evenodd" clip-rule="evenodd" d="M63.3873 180.116C63.3195 180.117 63.2518 180.111 63.1851 180.099C62.4073 179.874 61.2441 181.21 60.9226 179.893C60.7083 179.005 61.7453 178.222 62.6994 177.745C65.1502 176.521 66.6003 177.054 66.6747 179.301L63.3907 180.118" fill="#1072BA"/>
<path fill-rule="evenodd" clip-rule="evenodd" d="M115.206 74.7325C116.745 75.1145 118.058 75.9632 118.73 77.6363C118.889 78.0303 119.076 78.4071 118.692 78.7545C118.309 79.102 117.941 78.8842 117.567 78.7096C116.264 78.108 115.1 77.2429 114.148 76.1688C113.887 75.8698 113.592 75.5397 113.811 75.0799C114.095 74.4923 114.6 74.6807 115.206 74.7343" fill="#1072BA"/>
<path fill-rule="evenodd" clip-rule="evenodd" d="M96.2181 47.9649C98.3406 48.1672 99.7803 48.5232 100.695 49.9543C101.122 50.6232 101.224 51.2022 100.219 51.1521C98.7018 51.0743 97.2206 50.7356 95.9848 49.759C95.6045 49.4565 95.2364 49.0244 95.4058 48.5249C95.4578 48.3534 95.5665 48.2046 95.714 48.1029C95.8616 48.0012 96.0393 47.9525 96.2181 47.9649Z" fill="#1072BA"/>
<path fill-rule="evenodd" clip-rule="evenodd" d="M64.5401 197.514C62.3848 197.839 60.8465 197.12 59.3186 196.374C58.7655 196.104 58.4648 195.731 58.6964 195.076C58.947 194.362 59.4707 194.154 60.15 194.274C62.0028 194.6 63.2109 195.819 64.5401 197.514Z" fill="#1072BA"/>
<path fill-rule="evenodd" clip-rule="evenodd" d="M118.627 160.444C118.167 157.963 117.763 155.765 117.363 153.563C117.306 153.238 117.267 152.872 117.633 152.657C117.92 152.497 118.138 152.657 118.35 152.846C119.783 154.147 120.099 158.722 118.627 160.451" fill="#1072BA"/>
<path fill-rule="evenodd" clip-rule="evenodd" d="M33.9475 61.1007C34.3485 61.6193 34.2068 62.4541 34.9171 62.798C33.2544 63.8593 31.4154 64.6699 30.1761 66.3136C30.0033 66.5487 29.7838 67.1242 29.2532 66.5971C28.8557 66.203 29.0095 65.8936 29.2342 65.5203C30.3574 63.6323 31.9913 62.1003 33.9475 61.1007Z" fill="#1072BA"/>
<path fill-rule="evenodd" clip-rule="evenodd" d="M111.903 145.199C110.106 145.564 110.374 143.875 109.815 143.047C109.257 142.22 108.939 141.032 109.675 140.393C111.017 139.233 110.807 141.281 111.53 141.545C111.732 142.755 112.33 143.925 111.903 145.199Z" fill="#1072BA"/>
<path fill-rule="evenodd" clip-rule="evenodd" d="M62.9794 183.874C61.4238 183.328 61.0107 182.612 62.6337 181.585C63.1643 181.516 63.6949 181.373 64.2255 181.388C65.4095 181.426 65.6394 182.372 65.6083 183.239C65.5737 184.382 64.7216 184.156 63.9646 183.972C63.6355 183.916 63.3028 183.883 62.969 183.874" fill="#1072BA"/>
<path fill-rule="evenodd" clip-rule="evenodd" d="M20.1462 149.538C20.4176 151.245 19.8887 152.386 18.9363 153.378C18.5751 153.751 18.1758 153.973 17.6573 153.627C17.1163 153.252 17.2978 152.787 17.5225 152.35C18.0929 151.25 18.7911 150.26 20.141 149.544" fill="#1072BA"/>
<path fill-rule="evenodd" clip-rule="evenodd" d="M107.349 190.85C107.465 191.638 107.088 191.887 106.54 191.852C105.468 191.802 104.95 191.133 104.855 190.124C104.789 189.432 104.972 188.395 105.686 188.594C106.663 188.852 106.856 190.136 107.349 190.841" fill="#1072BA"/>
<path fill-rule="evenodd" clip-rule="evenodd" d="M91.6327 203.735C91.6095 203.671 91.5824 203.609 91.5515 203.548C91.1954 202.874 90.1999 202.411 90.791 201.427C91.0641 200.968 91.5169 201.158 91.8833 201.339C92.9428 201.858 93.489 202.615 92.8685 203.818C92.4416 204.07 92.0233 204.115 91.6327 203.735Z" fill="#1072BA"/>
<path fill-rule="evenodd" clip-rule="evenodd" d="M66.5053 203.415C66.5312 204.051 66.1596 204.265 65.6152 204.279C64.6663 204.298 64.0596 203.761 63.828 202.919C63.6465 202.276 64.1547 202.098 64.6819 202.112C65.5772 202.136 66.2374 202.521 66.5053 203.422" fill="#1072BA"/>
<path fill-rule="evenodd" clip-rule="evenodd" d="M20.1807 91.638C20.2572 91.862 20.3818 92.0666 20.5457 92.2374C20.7096 92.4082 20.9089 92.541 21.1296 92.6267C20.4556 93.4909 19.9198 94.5193 18.537 94.9151C18.7514 93.496 19.3598 92.5143 20.1894 91.6311" fill="#1072BA"/>
<path fill-rule="evenodd" clip-rule="evenodd" d="M116.048 149.118C116.108 148.73 115.906 148.091 116.501 148.16C117.41 148.262 117.524 149.156 117.695 149.861C117.839 150.462 117.422 150.813 116.871 150.725C115.924 150.578 116.117 149.75 116.048 149.114" fill="#1072BA"/>
<path fill-rule="evenodd" clip-rule="evenodd" d="M105.828 134.065C103.292 130.88 101.018 127.437 98.1729 124.559C91.0053 117.313 83.2949 116.389 73.7248 122.258C69.0097 125.15 65.5581 129.454 62.3347 133.878C58.069 139.732 54.3339 145.975 49.4598 151.38C48.2197 152.774 46.7435 153.938 45.0991 154.82C44.5547 155.112 43.8979 155.445 43.471 154.702C43.044 153.959 43.8875 153.814 44.2228 153.478C45.3774 152.301 46.729 151.318 47.6571 149.925C49.0398 146.986 51.3179 144.655 52.9477 141.876C54.6761 138.927 56.5774 136.07 58.4924 133.234C61.9492 127.736 66.2235 123.088 71.7475 119.508C76.9102 116.166 82.391 115.381 88.2917 116.243C92.9808 117.225 96.4843 119.942 99.4779 123.579C102.589 127.355 105.923 130.947 108.243 135.294C108.574 135.911 109.625 136.744 108.761 137.321C107.842 137.943 107.479 136.711 107.015 136.091C106.775 135.766 106.417 135.5 106.497 135.019C106.376 134.634 106.291 134.22 105.828 134.074" fill="#1072BA"/>
<path fill-rule="evenodd" clip-rule="evenodd" d="M61.3183 161.463L62.1825 159.63C61.9802 159.547 61.8368 159.429 61.7573 159.457C60.9035 159.84 59.8716 160.826 59.1474 159.986C58.3454 159.054 59.6659 158.321 60.2156 157.687C65.2901 151.893 68.6709 144.912 73.4723 138.941C76.7183 134.903 80.6054 132.074 86.1622 132.349C89.3719 132.506 91.8383 133.809 93.7032 136.384C98.0743 142.434 100.838 149.259 103.496 156.145C103.65 156.541 103.885 157.035 103.453 157.26C102.935 157.528 102.573 157.115 102.354 156.626C101.391 154.493 100.463 152.339 99.4432 150.231C97.8548 146.936 96.1022 143.734 93.9002 140.788C88.5422 133.631 80.4447 133.999 75.3719 141.542C72.2089 146.245 69.5575 151.243 66.6849 156.112C65.4301 158.243 64.1701 160.383 62.5731 162.291C61.9007 162.4 61.2543 162.464 61.3235 161.453" fill="#1072BA"/>
<path fill-rule="evenodd" clip-rule="evenodd" d="M51.095 161.493C58.3646 152.647 64.0579 142.726 71.3172 133.953C73.5727 131.225 76.1031 128.811 79.572 127.583C83.4194 126.221 87.666 127.682 89.0643 130.978C88.6409 131.353 88.1327 131.177 87.7162 131.073C82.7626 129.82 78.7959 131.7 75.2562 134.946C72.8986 137.11 71.07 139.718 69.1809 142.27C65.4424 147.318 61.7367 152.391 57.9999 157.443C56.2974 159.744 54.0246 161.137 51.1002 161.493" fill="#1072BA"/>
<path fill-rule="evenodd" clip-rule="evenodd" d="M70.8643 127.044C73.6141 124.265 76.9793 122.613 80.7438 121.752C82.3339 121.391 83.8912 121.752 85.4104 122.333C88.5889 123.56 91.1746 125.608 93.2815 128.23C99.3084 135.724 103.998 143.939 106.457 153.319C106.542 153.632 106.528 153.969 106.604 154.749C104.727 153.485 104.046 151.855 103.462 150.243C101.215 144.007 97.7909 138.446 93.7949 133.208C92.4642 131.442 91.0036 129.778 89.4255 128.23C85.7284 124.642 81.7877 124 77.1539 126.329C75.7452 127.036 74.4317 127.936 73.0749 128.748C71.865 128.788 71.0008 128.38 70.8712 127.041" fill="#1072BA"/>
<path fill-rule="evenodd" clip-rule="evenodd" d="M55.5282 115.011C54.9198 115.201 54.3183 116.065 53.7099 115.391C53.2432 114.873 53.9985 114.344 54.2613 113.836C55.9817 110.457 58.3647 107.459 61.2682 105.021C66.882 101.046 72.8484 97.9691 79.7067 96.6054C87.7022 95.0084 94.6797 97.1654 101.198 101.597C101.519 102.517 101.716 103.351 100.219 103.002C96.6916 101.296 93.3212 99.0995 89.3096 98.7348C81.976 98.0694 75.1956 100.131 68.8765 103.614C66.1249 105.13 63.3094 106.649 60.8758 108.715C58.8933 110.638 57.7232 113.255 55.5282 115.002" fill="#1072BA"/>
<path fill-rule="evenodd" clip-rule="evenodd" d="M107.287 101.739C107.588 102.043 107.888 102.345 108.187 102.653C108.277 103.303 108.288 103.899 107.354 103.811C106.122 102.816 104.889 101.822 103.654 100.83C103.524 100.334 103.113 100.225 102.694 100.116C98.0278 97.2812 93.2298 94.8615 87.6989 94.1269C82.9703 93.4708 78.1524 94.0287 73.6989 95.7481C69.6268 97.3037 65.9211 99.5316 62.2085 101.747C61.0522 101.606 61.0246 101.552 60.9986 99.5835C62.6285 97.1637 65.3196 96.2131 67.7031 94.8943C69.7409 93.7674 71.9498 92.9291 74.1362 92.0649C76.25 91.2318 78.452 91.2318 80.628 90.9812C88.4542 90.601 95.5147 92.8375 102.013 97.1153C103.529 98.1126 104.765 99.4054 106.129 100.572C106.433 101.044 106.647 101.595 107.287 101.747" fill="#1072BA"/>
<path fill-rule="evenodd" clip-rule="evenodd" d="M74.0134 151.475C73.2581 151.587 72.7655 152.939 71.8857 152.139C71.1425 151.463 71.7129 150.6 72.0413 149.843C73.4395 146.585 75.1524 143.537 77.904 141.201C81.2381 138.374 85.464 137.745 88.8672 139.485C89.9405 140.035 90.7564 140.838 91.503 141.756C95.3262 146.461 97.8981 151.864 100.211 157.403C100.399 157.853 100.676 158.385 100.105 158.681C99.5349 158.976 99.0129 158.643 98.7018 158.136C97.7287 156.551 96.7522 154.966 95.8482 153.342C94.314 150.568 92.6286 147.881 90.7996 145.293C87.7662 141.015 83.3242 140.565 79.5097 144.197C77.4079 146.2 76.1652 148.718 75.4566 151.508C75.2941 152.142 75.3909 153.177 74.6166 153.155C73.6521 153.127 74.3383 152.021 74.0134 151.473" fill="#1072BA"/>
<path fill-rule="evenodd" clip-rule="evenodd" d="M63.7933 113.234C62.2965 114.154 61.8662 116.29 59.5881 116.864C60.4523 114.74 61.5844 113.146 62.8721 111.648C63.4096 111.445 63.4546 110.837 63.821 110.493C65.0602 108.611 66.8733 107.349 68.6812 106.117C72.1523 103.769 75.9602 101.962 79.9746 100.759C85.5694 99.0615 91.0363 100.297 96.0158 103.27C99.2132 105.144 102.088 107.521 104.528 110.31C104.817 110.982 104.675 111.504 104.01 111.85C102.769 111.454 102.029 110.395 101.127 109.582C97.0736 105.928 92.362 103.733 87.0039 102.769C84.681 102.352 82.4652 102.408 80.3427 103.408C74.8257 106.017 69.0476 108.172 64.5227 112.5C64.356 112.566 64.2051 112.667 64.0798 112.796C63.9545 112.925 63.8575 113.078 63.795 113.246" fill="#1072BA"/>
<path fill-rule="evenodd" clip-rule="evenodd" d="M73.5086 112.583C81.0306 106.753 94.3722 109.708 100.695 117.822C102.862 120.603 104.539 123.698 106.091 126.847C106.239 127.15 106.716 127.565 106.137 127.884C105.728 128.106 105.323 127.902 105.066 127.525C104.326 126.445 103.6 125.356 102.878 124.262C101.351 121.949 99.509 119.925 97.4867 118.02C93.1951 113.974 87.8077 113.338 82.3408 112.965C79.8916 112.792 77.3889 112.182 75.0279 113.452C74.4402 114.259 73.6659 114.437 72.9797 113.741C72.4612 113.222 72.8691 112.773 73.5086 112.591" fill="#1072BA"/>
<path fill-rule="evenodd" clip-rule="evenodd" d="M61.6934 121.107C59.7826 122.079 58.18 123.564 57.0648 125.395C53.6426 130.81 49.8833 136.015 46.7204 141.601C46.3418 142.27 45.9236 143.13 45.0231 142.638C44.1226 142.145 44.8139 141.404 45.132 140.864C48.8791 134.518 52.1147 127.865 56.23 121.733C57.4191 119.958 58.6964 118.3 61.13 118.006C62.4487 117.847 63.3631 116.691 64.3759 115.872C66.7957 113.92 69.1013 111.829 71.7475 110.185C72.2418 109.879 72.8399 109.174 73.3895 109.677C73.9961 110.234 73.0957 110.714 72.9349 111.25C69.6752 114.308 66.4966 117.455 63.1608 120.431C62.765 120.777 62.307 121.147 61.6969 121.104" fill="#1072BA"/>
<path fill-rule="evenodd" clip-rule="evenodd" d="M46.3868 148.623C45.3636 148.958 44.6878 150.822 43.7303 150.023C43.1703 149.556 44.5824 148.189 45.2858 147.334C49.1315 142.612 51.4562 136.95 54.8041 131.91C57.0925 128.467 59.3186 125.017 62.3036 122.123C62.9102 120.99 63.79 120.267 65.133 120.222C65.9972 120.511 66.488 121.104 66.5641 122.023C64.9532 124.336 62.8722 126.249 61.1248 128.453C59.9537 129.902 58.8648 131.417 57.8633 132.988C55.1705 137.454 52.4362 141.893 49.1678 145.977C48.3624 146.986 47.7401 148.179 46.4024 148.618" fill="#1072BA"/>
<path fill-rule="evenodd" clip-rule="evenodd" d="M78.6697 159.32C78.324 168.049 81.9537 175.239 87.2979 181.789C87.6937 182.27 88.7238 182.735 88.0981 183.435C87.367 184.252 86.724 183.283 86.2349 182.818C78.8425 175.747 74.7877 167.376 76.2292 156.892C76.2343 156.685 76.2704 156.481 76.3364 156.285C76.7408 155.421 76.4798 153.836 77.9559 154.064C79.3904 154.289 78.8305 155.67 78.8114 156.634C78.7942 157.533 78.7181 158.43 78.6697 159.325" fill="#1072BA"/>
<path fill-rule="evenodd" clip-rule="evenodd" d="M97.0633 111.658C94.0939 109.899 91.0796 108.301 87.5572 107.837C84.1186 107.376 80.6196 107.85 77.427 109.207C77.1182 109.359 76.8001 109.492 76.4747 109.605C76.008 109.738 75.4186 109.855 75.168 109.375C74.8742 108.822 75.4204 108.511 75.8352 108.282C78.2428 106.919 80.1009 104.134 83.4989 105.334C87.1527 103.217 90.2085 105.617 93.4251 106.692C94.5381 107.066 95.4317 107.845 96.3391 108.613C97.8515 109.895 99.1046 111.435 101.096 112.242C102.501 112.811 102.973 114.581 103.636 115.967C103.968 116.954 103.464 116.937 102.772 116.681C101.263 115.298 99.7515 113.915 98.2386 112.533C98.1363 112.297 97.9742 112.092 97.7683 111.938C97.5625 111.785 97.3201 111.687 97.0651 111.656" fill="#1072BA"/>
<path fill-rule="evenodd" clip-rule="evenodd" d="M70.8643 127.044C71.3707 127.908 72.2038 128.349 73.068 128.752C66.9097 134.801 62.8826 142.544 57.0872 149.204C56.4547 145.747 65.7707 131.101 70.8643 127.044Z" fill="#1072BA"/>
<path fill-rule="evenodd" clip-rule="evenodd" d="M90.4228 153.883C89.7816 152.846 89.1507 151.809 88.4922 150.787C87.3705 149.059 85.8823 148.094 83.7236 148.64C81.8085 148.784 81.0549 150.486 79.8122 151.544C79.1796 152.083 78.5245 153.24 77.6465 152.581C76.9638 152.075 77.6828 151.038 77.9801 150.3C79.19 147.292 81.1638 145.184 84.5912 144.795C86.3196 144.601 87.6902 145.051 88.7808 146.447C90.2945 148.418 91.6099 150.533 92.7078 152.763C92.5947 152.902 92.4424 153.005 92.2705 153.057C91.8125 153.138 91.3786 153.245 91.1591 153.717C91.0597 153.87 90.9332 154.004 90.7858 154.113C90.5749 154.175 90.4609 154.09 90.4228 153.883Z" fill="#1072BA"/>
<path fill-rule="evenodd" clip-rule="evenodd" d="M61.6813 175.424C62.9517 174.468 64.5366 174.19 65.9072 173.445C68.2527 172.169 69.7581 170.436 69.5369 167.535C69.4262 166.032 69.5853 164.502 69.6734 162.986C69.7201 162.214 70.1919 161.603 70.9662 161.654C71.8944 161.723 71.8633 162.469 71.7544 163.226C71.125 167.416 71.736 171.698 73.5122 175.545C73.7386 176.043 74.1396 176.603 73.4655 176.979C72.9816 177.251 72.4959 176.865 72.2228 176.476C70.4719 173.986 68.4566 174.152 66.0887 175.612C65.0517 176.25 63.7433 176.43 62.5576 176.822C62.0114 177.085 61.4134 177.226 60.9035 177.572C60.7917 177.64 60.6628 177.675 60.5319 177.672C60.3968 177.773 60.2383 177.837 60.0713 177.859C59.9043 177.882 59.7345 177.861 59.5779 177.799C59.1942 177.508 58.9314 177.173 59.1734 176.658C59.31 176.565 59.4465 176.473 59.5796 176.38C59.9748 176.367 60.3637 176.277 60.7236 176.113C61.0835 175.949 61.4073 175.715 61.6761 175.425" fill="#1072BA"/>
<path fill-rule="evenodd" clip-rule="evenodd" d="M90.7685 154.021C90.7824 153.883 90.7927 153.743 90.8048 153.603C91.1609 152.953 91.8954 153.07 92.4347 152.797C92.5229 152.782 92.6075 152.771 92.7043 152.763C95.5233 157.193 97.6786 161.972 99.8789 166.723C100.862 168.844 101.894 170.942 102.902 173.051C102.254 173.471 101.612 173.915 100.788 173.502C99.484 171.496 98.3838 169.366 97.5041 167.141C95.8241 162.936 93.5409 159.057 91.1211 155.252C90.7443 154.916 90.3053 154.598 90.7599 154.021" fill="#1072BA"/>
<path fill-rule="evenodd" clip-rule="evenodd" d="M104.689 118.11C106.447 119.624 107.306 121.413 108.165 123.164C109.56 126.004 110.825 128.904 112.178 131.766C112.728 132.933 112.828 134.144 112.717 135.396C112.681 135.84 112.861 136.433 112.216 136.606C111.641 136.753 111.364 136.301 111.094 135.887C109.884 134.034 108.868 132.057 108.274 129.938C107.531 127.294 106.562 124.72 105.379 122.243C104.832 121.092 104.246 119.861 104.687 118.117" fill="#1072BA"/>
<path fill-rule="evenodd" clip-rule="evenodd" d="M61.18 169.43C60.3902 169.379 60.1223 168.973 60.3763 168.33C60.5713 167.888 60.8402 167.483 61.1714 167.131C64.4415 163.468 67.385 159.573 69.7874 155.284C70.0104 154.89 70.1781 154.247 70.7847 154.441C71.4519 154.654 71.4087 155.305 71.2358 155.843C69.5472 161.175 66.742 165.734 62.0373 168.947C61.7539 169.141 61.4428 169.283 61.1731 169.43" fill="#1072BA"/>
<path fill-rule="evenodd" clip-rule="evenodd" d="M82.0677 115.084C78.1425 115.822 74.1603 116.423 70.7554 118.738C69.2275 119.775 67.7825 120.943 66.2996 122.049C65.8744 121.467 65.4481 120.884 65.0206 120.298C64.9307 119.754 65.2176 119.356 65.603 119.068C68.2406 117.104 70.9507 115.284 74.1724 114.363C74.926 114.147 75.6727 114.582 76.383 114.209C78.2843 114.152 80.1976 114.088 82.104 114.036C82.4221 114.036 82.906 114.003 82.8351 114.455C82.7971 114.698 82.3356 114.875 82.0677 115.079" fill="#1072BA"/>
<path fill-rule="evenodd" clip-rule="evenodd" d="M100.219 103.011C101.125 102.947 101.17 102.283 101.198 101.606C104.755 103.737 107.555 106.627 109.689 110.158C109.966 110.624 110.6 111.236 109.895 111.798C109.11 112.42 108.832 111.501 108.462 111.131C105.731 108.403 103.161 105.517 100.219 103.007" fill="#1072BA"/>
<path fill-rule="evenodd" clip-rule="evenodd" d="M61.3322 99.701C61.5051 100.436 61.073 101.429 62.212 101.751C61.7822 102.174 61.3501 102.595 60.9157 103.016C58.1157 104.979 56.1332 107.743 53.8293 110.198C53.43 110.623 52.7317 111.838 52.5468 110.025C53.0307 109.074 53.5095 108.123 53.9952 107.175C55.4505 103.942 58.1762 101.841 60.7636 99.6215C60.9122 99.4936 61.1542 99.5644 61.3288 99.6992" fill="#1072BA"/>
<path fill-rule="evenodd" clip-rule="evenodd" d="M42.9317 168.346C44.3697 166.073 45.7921 163.842 47.944 162.203C48.5005 161.78 49.0986 161.605 49.6136 162.129C50.1287 162.653 50.3378 163.42 49.8504 164.03C48.0598 166.244 45.8371 167.815 42.9247 168.351" fill="#1072BA"/>
<path fill-rule="evenodd" clip-rule="evenodd" d="M67.9831 168.698C67.8708 169.596 67.729 170.427 66.9011 170.862C65.247 171.753 63.5964 172.651 61.9043 173.455C61.5431 173.628 60.85 173.764 60.5873 173.336C60.2762 172.831 60.8068 172.499 61.2061 172.231C62.9984 171.039 64.1668 169.203 65.7517 167.791C66.2374 167.356 66.768 167.02 67.4179 167.321C68.0298 167.598 67.9589 168.208 67.9831 168.69" fill="#1072BA"/>
<path fill-rule="evenodd" clip-rule="evenodd" d="M118.737 117.654C118.827 118.518 118.331 118.464 117.827 118.345C117.083 118.156 116.442 117.688 116.034 117.039C114.684 115.041 113.856 112.776 112.859 110.595C112.686 110.213 112.608 109.776 113.091 109.536C113.45 109.363 113.782 109.546 114.008 109.803C116.098 112.135 117.363 114.963 118.737 117.654Z" fill="#1072BA"/>
<path fill-rule="evenodd" clip-rule="evenodd" d="M50.1063 157.22C49.6984 156.218 48.6735 156.346 47.8974 156.01C50.0165 154.049 52.1286 152.078 54.2631 150.134C54.4947 149.918 54.6295 149.32 55.1809 149.771C55.6458 150.153 55.3658 150.5 55.1809 150.855C53.9434 153.342 52.1873 155.414 50.0994 157.222" fill="#1072BA"/>
<path fill-rule="evenodd" clip-rule="evenodd" d="M57.1148 163.52C55.7321 165.636 53.7082 167.02 51.6497 168.372C51.1813 168.679 50.6264 168.98 50.1857 168.436C49.6672 167.807 50.3205 167.464 50.6939 167.112C52.5415 165.383 54.403 163.655 56.2506 161.927C56.6534 161.55 57.0163 161.1 57.6593 161.444C57.9946 162.271 57.7889 162.955 57.1148 163.518" fill="#1072BA"/>
<path fill-rule="evenodd" clip-rule="evenodd" d="M111.551 165.62C111.447 166.006 111.787 166.44 111.262 166.953C109.285 164.187 107.646 161.323 106.862 158.014C106.77 157.623 106.689 157.149 107.207 156.977C107.641 156.831 108.013 157.07 108.306 157.383C109.108 158.224 109.188 159.372 109.575 160.39C110.035 161.6 110.529 162.793 111.01 163.992C111.554 164.416 111.791 164.938 111.551 165.617" fill="#1072BA"/>
<path fill-rule="evenodd" clip-rule="evenodd" d="M72.1174 158.93C72.0754 157.705 72.4823 156.508 73.2616 155.563C73.3564 155.419 73.4962 155.312 73.6589 155.257C73.8216 155.202 73.998 155.202 74.1603 155.258C74.5561 155.383 74.6477 155.722 74.6062 156.078C74.3695 158.053 73.9788 160.019 74.4334 162.013C74.4533 162.08 74.4596 162.15 74.452 162.219C74.4443 162.288 74.4228 162.355 74.3888 162.415C74.3548 162.476 74.3089 162.529 74.2539 162.572C74.1989 162.614 74.1359 162.645 74.0687 162.663C73.6729 162.784 73.3998 162.57 73.2045 162.281C72.5457 161.283 72.17 160.125 72.1174 158.93Z" fill="#1072BA"/>
<path fill-rule="evenodd" clip-rule="evenodd" d="M61.3183 161.464C61.7331 161.744 62.1531 162.024 62.5679 162.302C61.0195 164.977 58.9647 167.325 56.5185 169.215C57.7198 166.376 59.5536 163.945 61.3148 161.465" fill="#1072BA"/>
<path fill-rule="evenodd" clip-rule="evenodd" d="M59.1786 176.656L59.6573 177.652C59.882 178.402 58.9798 178.314 58.8242 178.782C57.6144 179.406 56.3717 179.962 55.2257 180.683C54.6139 181.069 53.8897 181.202 53.5665 180.794C53.1707 180.275 53.7168 179.572 54.1783 179.238C55.7045 178.129 57.1166 176.748 59.1768 176.663" fill="#1072BA"/>
<path fill-rule="evenodd" clip-rule="evenodd" d="M109.478 117.281C109.392 117.493 109.347 117.891 109.133 118.082C108.683 118.47 108.405 117.979 108.13 117.718C107.095 116.698 106.287 115.471 105.761 114.116C105.576 113.661 105.529 113.165 106.065 112.842C106.531 112.56 106.844 112.892 107.154 113.138C108.455 114.175 109.217 115.514 109.487 117.286" fill="#1072BA"/>
<path fill-rule="evenodd" clip-rule="evenodd" d="M107.361 103.811L108.194 102.653C109.995 103.758 111.024 105.565 112.32 107.131C112.32 107.453 112.605 107.823 112.275 108.085C111.912 108.383 111.673 108.039 111.445 107.814C110.075 106.483 108.714 105.149 107.361 103.811Z" fill="#1072BA"/>
<path fill-rule="evenodd" clip-rule="evenodd" d="M92.4814 187.809C92.4105 188.501 92.0009 188.458 91.5826 188.318C90.2587 187.877 89.5638 186.774 88.8638 185.682C88.6426 185.336 88.767 185.028 89.0367 184.786C89.3582 184.501 89.7488 184.32 90.1446 184.598C91.3026 185.414 91.6759 186.795 92.4727 187.809" fill="#1072BA"/>
<path fill-rule="evenodd" clip-rule="evenodd" d="M46.7878 156.88C47.2406 157.238 47.6935 157.597 48.1463 157.951C47.2614 159.02 46.6253 158.057 45.9149 157.713L46.7878 156.88Z" fill="#1072BA"/>
<path fill-rule="evenodd" clip-rule="evenodd" d="M40.9768 156.816C41.0459 156.285 41.4124 155.606 40.403 155.589C40.8956 155.129 41.6129 154.913 41.9464 155.471C42.4494 156.318 41.4971 156.493 40.9768 156.816Z" fill="#1072BA"/>
<path fill-rule="evenodd" clip-rule="evenodd" d="M104.008 111.838C104.181 111.319 104.354 110.811 104.526 110.298C104.983 110.624 105.439 110.989 105.137 111.617C104.903 112.097 104.488 112.308 104.003 111.838" fill="#1072BA"/>
<path fill-rule="evenodd" clip-rule="evenodd" d="M61.6812 175.424C61.2647 176.362 60.5923 176.734 59.5847 176.378C60.1775 175.83 60.9346 175.636 61.6812 175.424Z" fill="#1072BA"/>
<path fill-rule="evenodd" clip-rule="evenodd" d="M102.694 100.116C103.075 100.041 103.431 99.5419 103.816 99.9049C104.113 100.185 103.768 100.527 103.654 100.83C103.453 100.783 103.264 100.696 103.099 100.573C102.934 100.45 102.796 100.295 102.694 100.116Z" fill="#1072BA"/>
<path fill-rule="evenodd" clip-rule="evenodd" d="M58.8259 178.779C58.8017 178.179 59.4516 178.077 59.659 177.648C59.9529 177.648 60.2432 177.665 60.5371 177.671C60.1603 178.339 59.4395 178.476 58.8259 178.779Z" fill="#1072BA"/>
<path fill-rule="evenodd" clip-rule="evenodd" d="M60.9088 177.57C61.2648 176.889 61.8784 176.774 62.5628 176.82C62.1305 177.277 61.5369 177.546 60.9088 177.57Z" fill="#1072BA"/>
<path fill-rule="evenodd" clip-rule="evenodd" d="M97.0633 111.658C98.0104 111.21 98.1919 111.782 98.2368 112.534C97.848 112.244 97.4591 111.948 97.0633 111.658Z" fill="#1072BA"/>
<path fill-rule="evenodd" clip-rule="evenodd" d="M63.8246 110.484C63.8246 111.138 63.7312 111.694 62.8757 111.639C63.0345 111.148 63.3736 110.735 63.8246 110.484Z" fill="#1072BA"/>
<path fill-rule="evenodd" clip-rule="evenodd" d="M105.828 134.065C106.122 133.914 106.485 133.692 106.651 134.11C106.748 134.352 106.559 134.706 106.497 135.01C106.274 134.697 106.053 134.379 105.828 134.065Z" fill="#1072BA"/>
<path fill-rule="evenodd" clip-rule="evenodd" d="M63.7934 113.234C63.6413 112.944 63.3872 112.609 63.802 112.384C63.9749 112.294 64.2791 112.448 64.521 112.488C64.5007 112.676 64.4179 112.851 64.286 112.987C64.1541 113.122 63.9807 113.209 63.7934 113.234Z" fill="#1072BA"/>
<path fill-rule="evenodd" clip-rule="evenodd" d="M102.77 116.677C103.235 116.653 103.588 116.492 103.635 115.963C104.103 116.169 104.227 116.636 103.951 116.924C103.56 117.332 103.087 117.111 102.769 116.677" fill="#1072BA"/>
<path fill-rule="evenodd" clip-rule="evenodd" d="M59.6937 95.176C64.3967 91.8748 69.5612 89.4498 74.7826 87.1148C76.2535 86.458 77.6155 86.0778 79.095 86.9955C80.0421 87.5815 81.1172 87.2894 82.1352 87.3066C84.4824 87.3447 86.8296 87.3066 89.175 87.3689C90.7806 87.3852 92.322 88.0018 93.496 89.0973C93.9022 89.4741 94.3965 89.8854 94.1251 90.5024C93.7794 91.3044 93.1762 90.6943 92.7113 90.6096C88.0757 89.7575 83.4333 89.194 78.7407 90.1498C75.2735 91.4738 71.5436 92.0511 68.2407 93.8624C64.1822 96.093 60.4665 98.8971 57.2083 102.188C55.9034 103.498 54.8006 105.057 53.0705 105.897C48.5767 110.795 45.1199 116.418 41.8359 122.154C41.3364 123.034 40.9493 124.776 39.7809 124.17C38.571 123.542 39.5994 122.096 40.0332 121.059C44.3404 110.728 51.0345 102.219 59.6903 95.1829" fill="#1072BA"/>
<path fill-rule="evenodd" clip-rule="evenodd" d="M29.7163 149.015C29.1945 148.726 28.7763 148.281 28.5202 147.742C28.5202 147.615 28.5341 147.493 28.5479 147.367C29.9306 144.587 32.1516 142.372 33.6916 139.689C35.4684 136.597 37.1225 133.439 38.939 130.373C39.2847 129.784 39.5405 129.127 40.1955 128.785C42.5151 124.827 44.8622 120.886 47.1402 116.9C48.156 115.112 49.4382 113.49 50.9427 112.088C52.3859 111.846 51.9797 112.621 51.7274 113.424C51.4647 114.275 50.8269 114.913 50.381 115.597C44.4785 124.668 41.2205 135.202 34.6388 143.882C33.6795 145.142 32.6943 146.371 31.4533 147.37C30.864 147.577 30.278 147.794 30.1881 148.544L29.7146 149.015" fill="#1072BA"/>
<path fill-rule="evenodd" clip-rule="evenodd" d="M75.097 81.8467C77.3958 81.4491 79.4682 79.7086 82.422 80.7699C74.2985 85.1427 65.9521 88.4699 58.8311 93.9403C55.5092 96.0541 52.5795 98.664 49.541 101.137C49.1003 101.495 48.6042 102.235 48.0321 101.787C47.2993 101.208 47.9699 100.456 48.3415 99.9897C50.9739 96.6746 54.1403 93.9092 57.6489 91.5775C63.2092 87.8822 68.9077 84.4168 75.097 81.8467Z" fill="#1072BA"/>
<path fill-rule="evenodd" clip-rule="evenodd" d="M86.2194 76.003C83.3745 77.645 79.9972 77.7677 77.0745 79.1867C76.2725 79.5773 75.4239 79.8677 74.5977 80.2047C71.0476 81.2919 67.57 82.5415 64.4347 84.5983C62.7063 85.7304 60.8535 86.6499 58.8365 87.1788C58.3179 87.317 57.6715 87.5054 57.35 86.9091C57.0286 86.3128 57.5332 85.8721 57.9342 85.5091C58.3352 85.1462 58.7587 84.7452 59.2478 84.5257C66.1839 81.3956 72.7725 77.4185 80.3342 75.8267C81.9486 75.481 83.5594 75.0956 85.2308 75.1595C85.8063 75.1803 86.3854 75.1405 86.2125 76.003" fill="#1072BA"/>
<path fill-rule="evenodd" clip-rule="evenodd" d="M26.8818 146.228C26.429 145.984 26.3858 145.68 26.6416 145.227C29.7665 139.67 32.8845 134.109 35.9956 128.546C36.2228 128.122 36.4983 127.726 36.8166 127.366C37.2487 126.897 37.4509 125.935 38.2961 126.187C39.3764 126.512 39.0359 127.481 38.9408 128.28C38.806 130.233 37.5011 131.643 36.5798 133.206C34.4867 136.746 32.8672 140.562 30.2747 143.81C29.3845 144.928 28.446 146.039 26.8766 146.229" fill="#1072BA"/>
<path fill-rule="evenodd" clip-rule="evenodd" d="M91.1868 75.6071C91.2922 75.9251 91.5843 76.3832 91.4685 76.5439C90.7115 77.5948 89.5137 77.2578 88.4697 77.3252C87.6729 77.3753 86.9142 77.1834 87.0732 76.0703L88.8102 75.2251C89.0781 74.819 89.4739 74.8224 89.8888 74.8795C90.3381 75.0869 90.8376 75.2113 91.1868 75.6002" fill="#1072BA"/>
<path fill-rule="evenodd" clip-rule="evenodd" d="M83.2742 85.6768C81.9018 85.5783 80.5243 85.4936 79.1554 85.3709C78.8374 85.3415 78.4295 85.2965 78.3482 84.88C78.267 84.4634 78.5989 84.256 78.8668 84.0607C80.4033 82.958 82.1697 82.7592 83.9863 82.799C90.2206 82.9304 96.0089 84.8731 101.714 87.1632C102.73 87.5922 103.682 88.1586 104.544 88.8467C104.858 89.0904 105.309 89.3479 105.116 89.8301C104.858 90.4679 104.319 90.2052 103.878 90.0617C101.538 89.2649 99.2117 88.4059 96.8576 87.642C92.4467 86.2143 87.9425 85.3432 83.269 85.6751" fill="#1072BA"/>
<path fill-rule="evenodd" clip-rule="evenodd" d="M107.287 101.739C105.994 102.242 105.873 101.587 106.129 100.563C106.713 100.762 107.128 101.122 107.287 101.739Z" fill="#1072BA"/>
<path fill-rule="evenodd" clip-rule="evenodd" d="M33.1058 87.2098C32.1742 87.2289 31.3619 87.3274 32.1656 85.9118C33.5362 83.5024 35.707 81.9279 37.712 80.1684C42.2162 77.2301 46.8172 74.4647 51.7483 72.2938C52.3117 72.0432 52.8769 71.6975 53.4767 71.6025C54.3979 71.4625 55.8048 71.0477 56.0883 72.0207C56.3718 72.9938 55.5041 74.0672 54.2838 74.4301C52.1061 75.08 49.9473 75.7817 47.8974 76.779C47.5275 76.9605 47.1715 77.1679 46.8068 77.3597C41.5784 79.7138 37.6204 83.8395 33.1127 87.2116" fill="#1072BA"/>
<path fill-rule="evenodd" clip-rule="evenodd" d="M38.5364 87.298L37.6861 85.9637C39.6478 83.1257 42.6189 81.5528 45.4552 79.8244C46.4421 79.2247 47.467 78.6923 48.4747 78.1306C49.4339 78.077 50.134 77.1627 51.1693 77.2785C50.8149 78.8721 48.473 80.8234 42.2801 84.7244C41.9604 84.937 41.5214 84.9993 41.3866 85.44C40.1145 85.5575 39.9019 87.3101 38.5364 87.2911" fill="#1072BA"/>
<path fill-rule="evenodd" clip-rule="evenodd" d="M70.4477 63.1368C73.4638 62.3262 76.625 63.1143 79.6445 62.2933C80.3099 62.1205 80.4603 62.5872 80.4205 63.1454C76.7356 65.522 72.7465 65.401 68.5724 64.8548C68.8299 63.5706 69.9551 63.7521 70.4477 63.1368Z" fill="#1072BA"/>
<path fill-rule="evenodd" clip-rule="evenodd" d="M41.3866 85.4469C40.5673 83.8067 41.969 84.9526 42.2802 84.7313C41.9829 84.9716 41.6873 85.2084 41.3866 85.4469Z" fill="#1072BA"/>
<path fill-rule="evenodd" clip-rule="evenodd" d="M56.9386 66.9012C56.9282 67.3298 56.7502 67.5407 56.4771 67.5735C56.0484 67.6202 56.1521 67.2693 56.1815 67.0377C56.2243 66.8677 56.2888 66.7039 56.3734 66.5504L56.9455 66.896" fill="#1072BA"/>
<path fill-rule="evenodd" clip-rule="evenodd" d="M97.0149 180.936L94.9166 183.049C94.125 183.17 93.8208 182.531 93.5235 182.047C92.0544 179.643 90.3571 177.403 88.7376 175.109C86.9107 172.532 86.0759 169.59 85.267 166.605C84.9959 165.541 84.5893 164.516 84.0571 163.555C83.625 162.717 83.5541 161.809 83.5714 160.89C83.6475 159.956 83.3657 158.956 84.0899 158.145C84.3786 157.015 84.5981 155.86 85.1892 154.83C85.4173 154.432 85.7475 154.223 86.2141 154.386C86.6324 154.533 86.5806 154.904 86.5771 155.25C86.4976 162.654 89.3944 168.982 93.6531 174.826C95.0359 176.727 96.0729 178.815 97.0218 180.946" fill="#1072BA"/>
<path fill-rule="evenodd" clip-rule="evenodd" d="M93.7931 164.367C93.5632 165.736 93.3748 166.96 93.145 168.17C93.0586 168.619 93.0413 169.207 92.464 169.316C91.7865 169.452 91.4356 168.928 91.2541 168.413C90.7356 166.922 90.179 165.43 89.804 163.895C89.0383 160.763 87.9373 157.704 87.5744 154.477C87.5242 154.056 87.2615 153.44 87.9892 153.307C88.1996 153.28 88.4131 153.322 88.5976 153.427C88.7821 153.532 88.9277 153.693 89.0124 153.888C90.599 157.083 92.1638 160.286 93.7067 163.496C93.8467 163.785 93.7758 164.172 93.7897 164.36" fill="#1072BA"/>
<path fill-rule="evenodd" clip-rule="evenodd" d="M30.19 148.544C30.1226 148.255 29.4572 148.16 29.7786 147.852C30.2038 147.451 30.7051 146.845 31.4552 147.365C31.1493 147.883 30.8347 148.388 30.19 148.539" fill="#1072BA"/>
<path fill-rule="evenodd" clip-rule="evenodd" d="M54.7694 50.7131C55.3277 50.7511 55.6336 50.7407 55.5264 50.9723C55.4296 51.1711 55.1013 51.28 54.8576 51.382C54.7832 51.4131 54.5447 51.242 54.5516 51.2264C54.6432 50.9689 54.7677 50.7217 54.7694 50.7079" fill="#1072BA"/>
<path fill-rule="evenodd" clip-rule="evenodd" d="M83.0322 184.432C83.2154 184.581 83.4263 184.669 83.4678 184.809C83.4927 184.868 83.5011 184.933 83.4923 184.997C83.4834 185.06 83.4575 185.121 83.4174 185.171C83.3772 185.221 83.3243 185.26 83.2641 185.282C83.2039 185.305 83.1387 185.311 83.0754 185.3C82.9885 185.273 82.9099 185.225 82.8467 185.16C82.7835 185.094 82.7379 185.014 82.7142 184.926C82.7003 184.788 82.887 184.631 83.0322 184.432Z" fill="#1072BA"/>
<path fill-rule="evenodd" clip-rule="evenodd" d="M43.4796 191.844L44.8018 191.434C44.5979 192.409 43.9739 192.07 43.4796 191.844Z" fill="#1072BA"/>
<path fill-rule="evenodd" clip-rule="evenodd" d="M78.8218 142.631C78.4554 142.885 78.1547 142.75 77.9023 142.489C77.8534 142.389 77.8429 142.274 77.8729 142.166C78.3119 142.059 78.611 142.249 78.8218 142.631Z" fill="#1072BA"/>
<path fill-rule="evenodd" clip-rule="evenodd" d="M92.438 152.797C92.0098 153.254 91.4309 153.54 90.8082 153.603C90.7927 152.208 91.6724 152.631 92.438 152.797Z" fill="#1072BA"/>
</svg>
