<svg width="154" height="188" viewBox="0 0 154 188" fill="none" xmlns="http://www.w3.org/2000/svg">
<g clip-path="url(#clip0)">
<path d="M141.869 13.9342C137.282 5.5516 131.604 0.121674 131.604 0.121674C131.604 0.121674 125.932 5.54326 121.34 13.9342C124.3 16.1591 127.902 17.3621 131.605 17.3621C135.307 17.3621 138.91 16.1591 141.869 13.9342Z" fill="#C1C5CA"/>
<path d="M139.317 90.2305L139.354 90.1033L139.367 89.9865C139.736 88.1682 139.744 86.5042 138.873 84.6629C138.136 82.9868 136.845 81.6152 135.217 80.7788C133.588 79.9423 131.721 79.6919 129.93 80.0696C128.138 80.4473 126.531 81.4301 125.379 82.8529C124.227 84.2757 123.6 86.0517 123.603 87.8825C123.603 87.9597 123.603 88.0389 123.603 88.1161C123.611 89.0253 123.697 89.9321 123.859 90.8268C124.092 92.0021 124.05 93.2154 123.736 94.3717C123.808 94.3351 123.878 94.2932 123.945 94.2466C124.05 94.166 124.174 94.1143 124.306 94.0967C124.437 94.079 124.571 94.096 124.694 94.1459C124.817 94.1959 124.924 94.277 125.006 94.3814C125.088 94.4857 125.141 94.6096 125.16 94.7408C125.207 95.1796 125.196 95.6228 125.127 96.0587C125.109 96.1837 125.123 96.311 125.167 96.4294C125.21 96.5479 125.282 96.6538 125.377 96.7377C125.471 96.8216 125.584 96.881 125.707 96.9106C125.83 96.9402 125.958 96.9391 126.08 96.9073C126.266 96.8678 126.448 96.8127 126.624 96.7426C126.781 96.6585 126.928 96.5578 127.064 96.4423C127.167 96.3465 127.295 96.2812 127.434 96.2538C127.572 96.2265 127.715 96.2381 127.848 96.2874C127.98 96.3367 128.096 96.4218 128.182 96.5331C128.269 96.6444 128.323 96.7776 128.338 96.9178C128.417 97.6831 128.39 98.5026 128.534 99.1198C129.024 101.205 130.111 103.05 131.08 104.933C131.153 105.078 131.272 105.195 131.417 105.268C131.562 105.34 131.727 105.363 131.887 105.334C132.046 105.305 132.192 105.225 132.303 105.106C132.414 104.988 132.483 104.836 132.5 104.675C132.546 104.291 132.613 103.897 132.709 103.486C133.178 101.37 134.098 99.2949 134.984 97.314C135.276 96.7251 135.637 96.1728 136.06 95.6687C136.101 96.0067 136.168 96.3412 136.258 96.6696C136.39 97.2226 136.639 97.7409 136.988 98.1898C137.242 98.4775 138.151 98.8508 138.239 99.2115C138.103 98.6715 137.807 98.1814 137.711 97.6351C137.628 96.9573 137.68 96.2697 137.866 95.6124C138.374 93.546 138.969 91.8236 139.325 90.2284" fill="#C1C5CA"/>
<path d="M153.742 83.5035L149.303 62.1425C149.254 62.0077 149.165 61.8917 149.046 61.811L144.332 58.6331C146.156 49.4581 147.618 39.4907 147.618 34.3569C147.618 27.0357 145.216 20.2608 142.276 14.6932C139.243 17.1087 135.481 18.4239 131.604 18.4239C127.726 18.4239 123.964 17.1087 120.931 14.6932C117.993 20.2608 115.591 27.0357 115.591 34.3569C115.591 39.4907 117.051 49.456 118.871 58.6331L114.161 61.811C114.043 61.8939 113.953 62.0091 113.9 62.1425L109.467 83.5035C109.421 83.6272 109.411 83.7617 109.44 83.8906C109.469 84.0195 109.535 84.1371 109.629 84.2292C109.756 84.353 109.926 84.422 110.103 84.4211C110.189 84.4213 110.274 84.4064 110.355 84.3773L122.222 72.7688C122.802 74.7227 123.354 76.297 123.849 77.3125H139.354C139.853 76.297 140.397 74.7206 140.983 72.7667L152.85 84.3773C152.93 84.4061 153.015 84.4209 153.1 84.4211C153.21 84.4219 153.319 84.396 153.417 84.3455C153.515 84.295 153.599 84.2214 153.662 84.1311C153.726 84.0408 153.766 83.9365 153.78 83.8272C153.794 83.7179 153.781 83.6068 153.742 83.5035Z" fill="#C1C5CA"/>
<path d="M136.915 100.054C136.84 100.004 136.74 99.9393 136.671 99.8976C136.365 99.721 136.085 99.5043 135.837 99.2532C135.211 100.713 134.586 102.281 134.237 103.841C133.849 105.59 133.989 107.017 134.227 108.664C134.267 108.799 134.288 108.94 134.289 109.081C134.289 109.493 134.127 109.888 133.838 110.181C133.549 110.474 133.156 110.641 132.744 110.647H132.709C132.352 110.646 132.007 110.524 131.729 110.3C131.452 110.076 131.259 109.765 131.182 109.417C130.834 107.826 130.056 106.343 129.231 104.773C128.369 103.132 127.477 101.436 127.02 99.491C126.937 99.1081 126.885 98.7189 126.866 98.3274C126.691 98.3795 126.48 98.4317 126.215 98.4984C126.032 98.5422 125.742 98.6173 125.577 98.6652C125.293 98.8459 124.957 98.9297 124.621 98.9042C124.285 98.8786 123.966 98.7452 123.712 98.5236C123.458 98.302 123.282 98.0043 123.211 97.6747C123.139 97.3451 123.177 97.0013 123.317 96.6947C123.429 96.452 123.513 96.1974 123.567 95.9356C123.361 95.9088 123.163 95.8377 122.987 95.7271C122.917 97.0867 122.839 98.4379 122.729 99.8017C122.259 106.098 121.335 112.352 119.962 118.514C117.203 130.803 112.455 142.703 105.24 153.1C98.0794 163.497 88.3832 172.332 76.8331 178.135C71.0217 181.065 64.8354 183.184 58.4477 184.431C52.021 185.648 45.3795 186.14 38.7381 185.348C41.9868 186.196 45.3018 186.765 48.6471 187.05C52.0241 187.321 55.4175 187.316 58.7938 187.037C65.6234 186.497 72.3468 185.023 78.7765 182.658C91.7341 177.929 103.47 169.569 112.718 158.989C122.018 148.41 128.866 135.747 133.507 122.447C136.003 115.24 137.937 107.85 139.29 100.344C139.099 100.527 138.863 100.656 138.606 100.719C138.29 100.799 137.957 100.778 137.653 100.658C137.35 100.539 137.092 100.328 136.915 100.054Z" fill="#C1C5CA"/>
<path d="M139.388 95.9878C139.255 96.4352 139.21 96.9038 139.254 97.3682C139.3 97.5576 139.363 97.7425 139.442 97.9208C139.507 98.0793 139.573 98.2545 139.636 98.44C140.063 95.9461 140.434 93.4438 140.751 90.9332C140.57 91.7152 140.347 92.5055 140.107 93.3396C139.867 94.1737 139.617 95.0453 139.388 95.9836" fill="#C1C5CA"/>
<path d="M121.998 13.9342C117.411 5.5516 111.733 0.121674 111.733 0.121674C111.733 0.121674 106.061 5.54326 101.469 13.9342C104.429 16.1591 108.031 17.3621 111.734 17.3621C115.436 17.3621 119.039 16.1591 121.998 13.9342Z" fill="#57BE8E"/>
<path d="M119.446 90.2305L119.483 90.1033L119.496 89.9865C119.865 88.1682 119.873 86.5042 119.002 84.6629C118.265 82.9868 116.974 81.6152 115.346 80.7788C113.717 79.9423 111.85 79.6919 110.059 80.0696C108.267 80.4473 106.66 81.4301 105.508 82.8529C104.356 84.2757 103.729 86.0517 103.732 87.8825C103.732 87.9597 103.732 88.0389 103.732 88.1161C103.74 89.0253 103.826 89.9321 103.988 90.8268C104.221 92.0021 104.179 93.2154 103.865 94.3717C103.937 94.3351 104.007 94.2932 104.074 94.2466C104.179 94.166 104.303 94.1143 104.435 94.0967C104.566 94.079 104.7 94.096 104.823 94.1459C104.946 94.1959 105.053 94.277 105.135 94.3814C105.217 94.4857 105.27 94.6096 105.289 94.7408C105.336 95.1796 105.325 95.6228 105.256 96.0587C105.238 96.1837 105.252 96.311 105.296 96.4294C105.339 96.5479 105.411 96.6538 105.506 96.7377C105.6 96.8216 105.713 96.881 105.836 96.9106C105.959 96.9402 106.087 96.9391 106.209 96.9073C106.395 96.8678 106.577 96.8127 106.753 96.7426C106.91 96.6585 107.057 96.5578 107.193 96.4423C107.296 96.3465 107.425 96.2812 107.563 96.2538C107.701 96.2265 107.844 96.2381 107.977 96.2874C108.109 96.3367 108.225 96.4218 108.311 96.5331C108.398 96.6444 108.452 96.7776 108.467 96.9178C108.546 97.6831 108.519 98.5026 108.663 99.1198C109.153 101.205 110.24 103.05 111.209 104.933C111.282 105.078 111.401 105.195 111.546 105.268C111.691 105.34 111.856 105.363 112.016 105.334C112.175 105.305 112.321 105.225 112.432 105.106C112.543 104.988 112.612 104.836 112.629 104.675C112.675 104.291 112.742 103.897 112.838 103.486C113.307 101.37 114.226 99.2949 115.113 97.314C115.405 96.7251 115.766 96.1728 116.189 95.6687C116.23 96.0067 116.297 96.3412 116.387 96.6696C116.519 97.2226 116.768 97.7409 117.117 98.1898C117.371 98.4775 118.28 98.8508 118.368 99.2115C118.232 98.6715 117.936 98.1814 117.84 97.6351C117.757 96.9573 117.809 96.2697 117.994 95.6124C118.503 93.546 119.098 91.8236 119.454 90.2284" fill="#57BE8E"/>
<path d="M133.871 83.5035L129.432 62.1425C129.384 62.0077 129.294 61.8917 129.176 61.811L124.461 58.6331C126.285 49.4581 127.747 39.4907 127.747 34.3569C127.747 27.0357 125.345 20.2608 122.405 14.6932C119.372 17.1087 115.61 18.4239 111.733 18.4239C107.856 18.4239 104.093 17.1087 101.06 14.6932C98.1224 20.2608 95.7202 27.0357 95.7202 34.3569C95.7202 39.4907 97.1799 49.456 99.0003 58.6331L94.2897 61.811C94.1725 61.8939 94.082 62.0091 94.0291 62.1425L89.5959 83.5035C89.5496 83.6272 89.5403 83.7617 89.5692 83.8906C89.5981 84.0195 89.6639 84.1371 89.7585 84.2292C89.8849 84.353 90.055 84.422 90.2319 84.4211C90.3179 84.4213 90.4033 84.4064 90.4842 84.3773L102.351 72.7688C102.931 74.7227 103.483 76.297 103.978 77.3125H119.483C119.982 76.297 120.526 74.7206 121.112 72.7667L132.979 84.3773C133.059 84.4061 133.144 84.4209 133.229 84.4211C133.339 84.4219 133.448 84.396 133.546 84.3455C133.644 84.295 133.728 84.2214 133.792 84.1311C133.855 84.0408 133.895 83.9365 133.909 83.8272C133.923 83.7179 133.91 83.6068 133.871 83.5035Z" fill="#57BE8E"/>
<path d="M117.044 100.054C116.969 100.004 116.869 99.9393 116.8 99.8976C116.494 99.721 116.214 99.5043 115.966 99.2532C115.34 100.713 114.714 102.281 114.366 103.841C113.978 105.59 114.118 107.017 114.356 108.664C114.396 108.799 114.417 108.94 114.418 109.081C114.418 109.493 114.256 109.888 113.967 110.181C113.678 110.474 113.285 110.641 112.873 110.647H112.838C112.481 110.646 112.136 110.524 111.858 110.3C111.581 110.076 111.388 109.765 111.311 109.417C110.963 107.826 110.185 106.343 109.36 104.773C108.498 103.132 107.606 101.436 107.149 99.491C107.066 99.1081 107.014 98.7189 106.995 98.3274C106.82 98.3795 106.609 98.4317 106.344 98.4984C106.161 98.5422 105.871 98.6173 105.706 98.6652C105.422 98.8459 105.086 98.9297 104.75 98.9042C104.414 98.8786 104.095 98.7452 103.841 98.5236C103.587 98.302 103.411 98.0043 103.34 97.6747C103.268 97.3451 103.306 97.0013 103.446 96.6947C103.558 96.452 103.642 96.1974 103.696 95.9356C103.49 95.9088 103.292 95.8377 103.116 95.7271C103.046 97.0867 102.968 98.4379 102.858 99.8017C102.388 106.098 101.464 112.352 100.091 118.514C97.3321 130.803 92.584 142.703 85.3691 153.1C78.2085 163.497 68.5122 172.332 56.9621 178.135C51.1507 181.065 44.9644 183.184 38.5767 184.431C32.15 185.648 25.5086 186.14 18.8671 185.348C22.1158 186.196 25.4308 186.765 28.7761 187.05C32.1531 187.321 35.5465 187.316 38.9228 187.037C45.7524 186.497 52.4758 185.023 58.9055 182.658C71.8631 177.929 83.5988 169.569 92.8467 158.989C102.147 148.41 108.995 135.747 113.636 122.447C116.132 115.24 118.066 107.85 119.419 100.344C119.228 100.527 118.992 100.656 118.735 100.719C118.419 100.799 118.086 100.778 117.782 100.658C117.479 100.539 117.221 100.328 117.044 100.054Z" fill="#57BE8E"/>
<path d="M119.517 95.9878C119.384 96.4352 119.339 96.9038 119.383 97.3682C119.43 97.5576 119.492 97.7425 119.571 97.9208C119.636 98.0793 119.702 98.2545 119.765 98.44C120.192 95.9461 120.564 93.4438 120.88 90.9332C120.699 91.7152 120.476 92.5055 120.236 93.3396C119.996 94.1737 119.746 95.0453 119.517 95.9836" fill="#57BE8E"/>
<path d="M104.114 13.9342C99.5268 5.5516 93.8487 0.121674 93.8487 0.121674C93.8487 0.121674 88.1769 5.54326 83.5852 13.9342C86.5448 16.1591 90.1471 17.3621 93.8497 17.3621C97.5523 17.3621 101.155 16.1591 104.114 13.9342Z" fill="#1072BA"/>
<path d="M101.562 90.2305L101.6 90.1033L101.612 89.9865C101.981 88.1682 101.989 86.5042 101.118 84.6629C100.381 82.9868 99.0903 81.6152 97.4617 80.7788C95.8332 79.9423 93.9663 79.6919 92.1749 80.0696C90.3835 80.4473 88.7766 81.4301 87.6244 82.8529C86.4722 84.2757 85.8448 86.0517 85.8477 87.8825C85.8477 87.9597 85.8477 88.0389 85.8477 88.1161C85.8565 89.0253 85.9423 89.9321 86.1042 90.8268C86.3375 92.0021 86.2954 93.2154 85.9812 94.3717C86.0536 94.3351 86.1233 94.2932 86.1897 94.2466C86.295 94.166 86.4195 94.1143 86.5509 94.0967C86.6823 94.079 86.8161 94.096 86.9389 94.1459C87.0618 94.1959 87.1694 94.277 87.2512 94.3814C87.3331 94.4857 87.3862 94.6096 87.4054 94.7408C87.4524 95.1796 87.4412 95.6228 87.372 96.0587C87.3546 96.1837 87.3683 96.311 87.4118 96.4294C87.4554 96.5479 87.5274 96.6538 87.6217 96.7377C87.7159 96.8216 87.8294 96.881 87.9521 96.9106C88.0748 96.9402 88.2028 96.9391 88.325 96.9073C88.5107 96.8678 88.6927 96.8127 88.8692 96.7426C89.0261 96.6585 89.1736 96.5578 89.3092 96.4423C89.4126 96.3465 89.5407 96.2812 89.679 96.2538C89.8174 96.2265 89.9606 96.2381 90.0928 96.2874C90.2249 96.3367 90.3407 96.4218 90.4273 96.5331C90.514 96.6444 90.5679 96.7776 90.5833 96.9178C90.6625 97.6831 90.6354 98.5026 90.7793 99.1198C91.2693 101.205 92.3557 103.05 93.3253 104.933C93.3986 105.078 93.5167 105.195 93.6621 105.268C93.8074 105.34 93.9722 105.363 94.1319 105.334C94.2915 105.305 94.4375 105.225 94.5481 105.106C94.6587 104.988 94.7279 104.836 94.7454 104.675C94.7913 104.291 94.858 103.897 94.9539 103.486C95.4231 101.37 96.3427 99.2949 97.2289 97.314C97.5214 96.7251 97.8826 96.1728 98.3049 95.6687C98.3465 96.0067 98.4127 96.3412 98.503 96.6696C98.6351 97.2226 98.8839 97.7409 99.2328 98.1898C99.4872 98.4775 100.396 98.8508 100.484 99.2115C100.348 98.6715 100.052 98.1814 99.9563 97.6351C99.8729 96.9573 99.9254 96.2697 100.111 95.6124C100.619 93.546 101.214 91.8236 101.57 90.2284" fill="#1072BA"/>
<path d="M115.987 83.5035L111.548 62.1425C111.5 62.0077 111.41 61.8917 111.292 61.811L106.577 58.6331C108.401 49.4581 109.863 39.4907 109.863 34.3569C109.863 27.0357 107.461 20.2608 104.521 14.6932C101.488 17.1087 97.7257 18.4239 93.8487 18.4239C89.9716 18.4239 86.2092 17.1087 83.1765 14.6932C80.2384 20.2608 77.8362 27.0357 77.8362 34.3569C77.8362 39.4907 79.2959 49.456 81.1163 58.6331L76.4058 61.811C76.2886 61.8939 76.198 62.0091 76.1451 62.1425L71.7119 83.5035C71.6656 83.6272 71.6563 83.7617 71.6852 83.8906C71.7141 84.0195 71.7799 84.1371 71.8746 84.2292C72.0009 84.353 72.171 84.422 72.3479 84.4211C72.4339 84.4213 72.5193 84.4064 72.6002 84.3773L84.4672 72.7688C85.0469 74.7227 85.5995 76.297 86.0937 77.3125H101.599C102.098 76.297 102.642 74.7206 103.228 72.7667L115.095 84.3773C115.175 84.4061 115.26 84.4209 115.345 84.4211C115.455 84.4219 115.564 84.396 115.662 84.3455C115.76 84.295 115.844 84.2214 115.908 84.1311C115.971 84.0408 116.011 83.9365 116.025 83.8272C116.039 83.7179 116.026 83.6068 115.987 83.5035Z" fill="#1072BA"/>
<path d="M99.1598 100.054C99.0847 100.004 98.9846 99.9393 98.9158 99.8976C98.6103 99.721 98.3297 99.5043 98.0817 99.2532C97.4562 100.713 96.8306 102.281 96.4824 103.841C96.0945 105.59 96.2342 107.017 96.4719 108.664C96.5124 108.799 96.5335 108.94 96.5345 109.081C96.5345 109.493 96.3724 109.888 96.0832 110.181C95.794 110.474 95.401 110.641 94.9893 110.647H94.9539C94.5974 110.646 94.2519 110.524 93.9744 110.3C93.6968 110.076 93.5039 109.765 93.4275 109.417C93.0793 107.826 92.3015 106.343 91.4757 104.773C90.6145 103.132 89.7221 101.436 89.2654 99.491C89.1817 99.1081 89.1301 98.7189 89.1111 98.3274C88.9359 98.3795 88.7253 98.4317 88.4605 98.4984C88.277 98.5422 87.9872 98.6173 87.8224 98.6652C87.5377 98.8459 87.2023 98.9297 86.8661 98.9042C86.5299 98.8786 86.2109 98.7452 85.9568 98.5236C85.7026 98.302 85.5269 98.0043 85.4557 97.6747C85.3846 97.3451 85.4219 97.0013 85.562 96.6947C85.6741 96.452 85.758 96.1974 85.8123 95.9356C85.6062 95.9088 85.4085 95.8377 85.2326 95.7271C85.1617 97.0867 85.0845 98.4379 84.974 99.8017C84.5046 106.098 83.5798 112.352 82.2069 118.514C79.4482 130.803 74.7001 142.703 67.4852 153.1C60.3246 163.497 50.6283 172.332 39.0782 178.135C33.2668 181.065 27.0805 183.184 20.6928 184.431C14.2661 185.648 7.62466 186.14 0.983215 185.348C4.23191 186.196 7.54689 186.765 10.8922 187.05C14.2692 187.321 17.6626 187.316 21.0389 187.037C27.8685 186.497 34.5919 185.023 41.0216 182.658C53.9792 177.929 65.7149 169.569 74.9628 158.989C84.2629 148.41 91.1108 135.747 95.7525 122.447C98.2484 115.24 100.182 107.85 101.535 100.344C101.344 100.527 101.108 100.656 100.851 100.719C100.535 100.799 100.202 100.778 99.8985 100.658C99.5952 100.539 99.3368 100.328 99.1598 100.054Z" fill="#1072BA"/>
<path d="M101.633 95.9878C101.5 96.4352 101.455 96.9038 101.499 97.3682C101.546 97.5576 101.608 97.7425 101.687 97.9208C101.752 98.0793 101.818 98.2545 101.881 98.44C102.308 95.9461 102.68 93.4438 102.997 90.9332C102.815 91.7152 102.592 92.5055 102.352 93.3396C102.112 94.1737 101.862 95.0453 101.633 95.9836" fill="#1072BA"/>
</g>
<defs>
<clipPath id="clip0">
<rect width="154" height="187.781" fill="white"/>
</clipPath>
</defs>
</svg>
