<svg width="162" height="18" viewBox="0 0 162 18" fill="none" xmlns="http://www.w3.org/2000/svg">
<g clip-path="url(#clip0_118_385)">
<path d="M38.8698 3.08208H33.8526V17.4894H30.2844V3.08208H25.2672V0.200623H38.8517V3.08208H38.8698Z" fill="white"/>
<path d="M55.7147 0.182373V17.4711H52.1465V10.0304H44.5935V17.4711H41.0253V0.182373H44.5935V7.51369H52.1465V0.182373H55.7147Z" fill="white"/>
<path d="M72.9941 17.4711H69.7882C69.1905 17.4711 68.7558 17.234 68.4841 16.7781L65.2238 11.4711C65.097 11.2705 64.934 11.1064 64.771 11.0152C64.608 10.924 64.3725 10.8693 64.0465 10.8693H62.8329V17.4529H59.2828V0.164124H64.6804C65.8759 0.164124 66.9083 0.291783 67.7596 0.547102C68.6109 0.802421 69.3173 1.14893 69.8606 1.58661C70.404 2.0243 70.8025 2.57142 71.0561 3.17324C71.3097 3.7933 71.4364 4.46807 71.4364 5.19755C71.4364 5.7629 71.3459 6.31002 71.201 6.82065C71.0561 7.33129 70.8025 7.80545 70.4946 8.22491C70.1867 8.64436 69.8063 9.02734 69.3535 9.33737C68.9007 9.66564 68.3935 9.92095 67.8139 10.1216C68.0494 10.2492 68.2486 10.3951 68.4479 10.5775C68.6471 10.7599 68.8282 10.9605 68.9731 11.2158L72.9941 17.4711ZM64.6804 8.3708C65.26 8.3708 65.7491 8.29786 66.1657 8.15196C66.5822 8.00606 66.9264 7.80545 67.1981 7.55014C67.4698 7.29482 67.669 6.98479 67.7958 6.63828C67.9226 6.29178 67.9769 5.9088 67.9769 5.48935C67.9769 4.66868 67.7052 4.03038 67.1619 3.59269C66.6185 3.155 65.8034 2.91792 64.6985 2.91792H62.851V8.38904L64.6804 8.3708Z" fill="white"/>
<path d="M78.2469 2.9909V7.44075H83.9705V10.1398H78.2469V14.6809H85.6007V17.4894H74.6787V0.200623H85.6007V3.00914L78.2469 2.9909Z" fill="white"/>
<path d="M91.8314 2.9909V7.44075H97.555V10.1398H91.8314V14.6809H99.1851V17.4894H88.2632V0.200623H99.1851V3.00914L91.8314 2.9909Z" fill="white"/>
<path d="M105.416 2.99089V7.76901H111.592V10.5775H105.416V17.4711H101.848V0.182373H112.77V2.99089H105.416Z" fill="white"/>
<path d="M131.661 8.82676C131.661 10.0851 131.444 11.2705 131.027 12.3465C130.611 13.4225 130.013 14.3526 129.234 15.155C128.455 15.9392 127.55 16.5593 126.463 17.0152C125.376 17.4711 124.181 17.69 122.877 17.69C121.554 17.69 120.359 17.4711 119.29 17.0152C118.203 16.5593 117.28 15.9575 116.519 15.155C115.74 14.3708 115.142 13.4407 114.726 12.3465C114.309 11.2705 114.092 10.1034 114.092 8.82676C114.092 7.5684 114.309 6.40122 114.726 5.32523C115.142 4.24924 115.74 3.31915 116.519 2.53496C117.298 1.75076 118.222 1.1307 119.29 0.674773C120.377 0.218845 121.572 0 122.877 0C124.199 0 125.394 0.218845 126.463 0.674773C127.55 1.1307 128.473 1.75076 129.234 2.53496C130.013 3.31915 130.593 4.24924 131.027 5.32523C131.444 6.40122 131.661 7.5684 131.661 8.82676ZM128.021 8.82676C128.021 7.9149 127.894 7.11247 127.658 6.38298C127.423 5.67174 127.079 5.05168 126.626 4.54104C126.173 4.0304 125.648 3.64742 124.996 3.3921C124.362 3.11854 123.637 2.99088 122.84 2.99088C122.043 2.99088 121.319 3.11854 120.667 3.3921C120.033 3.66566 119.49 4.04864 119.037 4.54104C118.584 5.05168 118.258 5.6535 118.004 6.38298C117.769 7.09423 117.642 7.9149 117.642 8.82676C117.642 9.73861 117.769 10.5593 118.004 11.2705C118.24 11.9818 118.584 12.6018 119.037 13.0942C119.49 13.5866 120.033 13.9696 120.667 14.2432C121.301 14.5167 122.025 14.6444 122.84 14.6444C123.655 14.6444 124.362 14.5167 124.996 14.2432C125.63 13.9696 126.173 13.5866 126.626 13.0942C127.079 12.6018 127.405 11.9818 127.658 11.2705C127.912 10.5593 128.021 9.73861 128.021 8.82676Z" fill="white"/>
<path d="M144.449 14.5714V17.4711H134.27V0.182373H137.82V14.5714H144.449Z" fill="white"/>
<path d="M162 8.82676C162 10.0851 161.783 11.2523 161.366 12.31C160.95 13.3678 160.352 14.2797 159.573 15.0456C158.794 15.8116 157.889 16.4134 156.802 16.8328C155.715 17.2705 154.52 17.4711 153.215 17.4711H146.622V0.182373H153.215C154.538 0.182373 155.733 0.401218 156.802 0.820672C157.889 1.25836 158.812 1.84195 159.573 2.60791C160.334 3.37387 160.931 4.28572 161.366 5.34347C161.783 6.41946 162 7.5684 162 8.82676ZM158.359 8.82676C158.359 7.9149 158.233 7.11247 157.997 6.38299C157.762 5.6535 157.418 5.05168 156.983 4.54104C156.548 4.04864 156.005 3.66566 155.371 3.3921C154.737 3.11855 154.012 2.99089 153.215 2.99089H150.191V14.6809H153.215C154.012 14.6809 154.737 14.5532 155.371 14.2797C156.005 14.0061 156.548 13.6231 156.983 13.1307C157.418 12.6201 157.762 12.0183 157.997 11.2888C158.233 10.5593 158.359 9.73861 158.359 8.82676Z" fill="white"/>
<path d="M20.0145 4.59574H0V0H17.678C18.964 0 20.0145 1.05775 20.0145 2.35258V4.59574Z" fill="white"/>
<path d="M17.678 0H0V4.59574H20.0145V2.33435C20.0145 1.03951 18.964 0 17.678 0Z" fill="white"/>
<path d="M20.0146 11.2887H5.86853V6.69299H20.0146V11.2887Z" fill="white"/>
<path d="M17.678 18H0V13.4042H20.0145V15.6474C20.0145 16.9422 18.964 18 17.678 18Z" fill="white"/>
</g>
<defs>
<clipPath id="clip0_118_385">
<rect width="162" height="18" fill="white"/>
</clipPath>
</defs>
</svg>
