<svg width="152" height="73" viewBox="0 0 152 73" fill="none" xmlns="http://www.w3.org/2000/svg">
<path d="M15.114 56.9384H9.53935V72.5985H5.57468V56.9384H0V53.8063H15.0939V56.9384H15.114Z" fill="white"/>
<path d="M33.8305 53.7865V72.5786H29.8658V64.4909H21.4736V72.5786H17.5089V53.7865H21.4736V61.7553H29.8658V53.7865H33.8305Z" fill="white"/>
<path d="M53.0299 72.5786H49.4678C48.8037 72.5786 48.3207 72.3209 48.0188 71.8253L44.3962 66.0569C44.2554 65.8388 44.0742 65.6604 43.8931 65.5613C43.712 65.4622 43.4504 65.4027 43.0881 65.4027H41.7397V72.5588H37.7952V53.7667H43.7925C45.1207 53.7667 46.2679 53.9054 47.2138 54.1829C48.1596 54.4605 48.9445 54.8371 49.5483 55.3128C50.152 55.7886 50.5948 56.3833 50.8765 57.0374C51.1583 57.7114 51.2992 58.4449 51.2992 59.2378C51.2992 59.8523 51.1986 60.447 51.0376 61.002C50.8766 61.5571 50.5948 62.0725 50.2527 62.5284C49.9105 62.9843 49.4879 63.4006 48.9848 63.7376C48.4816 64.0944 47.9181 64.3719 47.2741 64.59C47.5358 64.7287 47.7571 64.8873 47.9785 65.0855C48.1999 65.2838 48.4011 65.5018 48.5621 65.7793L53.0299 72.5786ZM43.7925 62.687C44.4365 62.687 44.9799 62.6077 45.4427 62.4491C45.9056 62.2905 46.288 62.0725 46.5899 61.7949C46.8918 61.5174 47.1131 61.1804 47.254 60.8038C47.3949 60.4272 47.4553 60.0109 47.4553 59.5549C47.4553 58.6629 47.1534 57.9691 46.5496 57.4934C45.9459 57.0176 45.0402 56.7599 43.8126 56.7599H41.7598V62.7068L43.7925 62.687Z" fill="white"/>
<path d="M58.8663 56.8392V61.676H65.2259V64.6098H58.8663V69.5457H67.0371V72.5985H54.9016V53.8063H67.0371V56.8591L58.8663 56.8392Z" fill="white"/>
<path d="M73.9602 56.8392V61.676H80.3197V64.6098H73.9602V69.5457H82.131V72.5985H69.9955V53.8063H82.131V56.8591L73.9602 56.8392Z" fill="white"/>
<path d="M89.0542 56.8392V62.0328H95.9169V65.0856H89.0542V72.5786H85.0895V53.7865H97.225V56.8392H89.0542Z" fill="white"/>
<path d="M118.216 63.1825C118.216 64.5503 117.974 65.8388 117.511 67.0084C117.048 68.1779 116.384 69.1889 115.519 70.0611C114.653 70.9135 113.647 71.5875 112.44 72.083C111.232 72.5786 109.904 72.8165 108.455 72.8165C106.986 72.8165 105.657 72.5786 104.47 72.083C103.263 71.5875 102.236 70.9333 101.391 70.0611C100.525 69.2087 99.8614 68.1977 99.3985 67.0084C98.9356 65.8388 98.6941 64.5702 98.6941 63.1825C98.6941 61.8148 98.9356 60.5461 99.3985 59.3765C99.8614 58.207 100.525 57.196 101.391 56.3436C102.256 55.4913 103.283 54.8173 104.47 54.3217C105.678 53.8261 107.006 53.5883 108.455 53.5883C109.924 53.5883 111.252 53.8261 112.44 54.3217C113.647 54.8173 114.674 55.4913 115.519 56.3436C116.384 57.196 117.028 58.207 117.511 59.3765C117.974 60.5461 118.216 61.8148 118.216 63.1825ZM114.17 63.1825C114.17 62.1914 114.03 61.3192 113.768 60.5263C113.506 59.7532 113.124 59.0792 112.621 58.5242C112.118 57.9691 111.534 57.5528 110.809 57.2753C110.105 56.978 109.3 56.8392 108.415 56.8392C107.529 56.8392 106.724 56.978 106 57.2753C105.295 57.5727 104.691 57.9889 104.188 58.5242C103.685 59.0792 103.323 59.7334 103.041 60.5263C102.78 61.2994 102.639 62.1914 102.639 63.1825C102.639 64.1737 102.78 65.0657 103.041 65.8388C103.303 66.6119 103.685 67.2859 104.188 67.8211C104.691 68.3563 105.295 68.7726 106 69.07C106.704 69.3673 107.509 69.5061 108.415 69.5061C109.32 69.5061 110.105 69.3673 110.809 69.07C111.514 68.7726 112.118 68.3563 112.621 67.8211C113.124 67.2859 113.486 66.6119 113.768 65.8388C114.05 65.0657 114.17 64.1737 114.17 63.1825Z" fill="white"/>
<path d="M132.424 69.4268V72.5786H121.114V53.7865H125.058V69.4268H132.424Z" fill="white"/>
<path d="M151.925 63.1826C151.925 64.5503 151.684 65.819 151.221 66.9687C150.758 68.1185 150.094 69.1096 149.229 69.9422C148.363 70.7747 147.357 71.4289 146.149 71.8848C144.942 72.3606 143.614 72.5786 142.165 72.5786H134.839V53.7865H142.165C143.634 53.7865 144.962 54.0244 146.149 54.4803C147.357 54.9561 148.383 55.5904 149.229 56.4229C150.074 57.2555 150.738 58.2467 151.221 59.3964C151.684 60.5659 151.925 61.8148 151.925 63.1826ZM147.88 63.1826C147.88 62.1914 147.739 61.3192 147.478 60.5263C147.216 59.7334 146.834 59.0792 146.351 58.5242C145.868 57.989 145.264 57.5727 144.56 57.2753C143.855 56.978 143.05 56.8392 142.165 56.8392H138.804V69.5457H142.165C143.05 69.5457 143.855 69.407 144.56 69.1096C145.264 68.8123 145.868 68.396 146.351 67.8608C146.834 67.3057 147.216 66.6516 147.478 65.8587C147.739 65.0657 147.88 64.1737 147.88 63.1826Z" fill="white"/>
<path d="M97 9.38086H55.2383V0H92.1246C94.808 0 97 2.15909 97 4.80211V9.38086Z" fill="white"/>
<path d="M92.1246 0H55.2383V9.38086H97V4.76488C97 2.12186 94.808 0 92.1246 0Z" fill="white"/>
<path d="M97 23.0427H67.4834V13.6618H97V23.0427Z" fill="white"/>
<path d="M92.1246 36.7417H55.2383V27.3608H97V31.9396C97 34.5826 94.808 36.7417 92.1246 36.7417Z" fill="white"/>
</svg>
